<?xml version="1.0" encoding="UTF-8" standalone="no"?>
<!-- Created with Inkscape (http://www.inkscape.org/) -->

<svg
   width="210mm"
   height="297mm"
   viewBox="0 0 210 297"
   version="1.1"
   id="svg5"
   inkscape:version="1.2.1 (9c6d41e410, 2022-07-14)"
   sodipodi:docname="perfect.svg"
   xmlns:inkscape="http://www.inkscape.org/namespaces/inkscape"
   xmlns:sodipodi="http://sodipodi.sourceforge.net/DTD/sodipodi-0.dtd"
   xmlns="http://www.w3.org/2000/svg"
   xmlns:svg="http://www.w3.org/2000/svg">
  <sodipodi:namedview
     id="namedview7"
     pagecolor="#ffffff"
     bordercolor="#000000"
     borderopacity="0.25"
     inkscape:showpageshadow="2"
     inkscape:pageopacity="0.0"
     inkscape:pagecheckerboard="0"
     inkscape:deskcolor="#d1d1d1"
     inkscape:document-units="mm"
     showgrid="false"
     inkscape:zoom="1.6819304"
     inkscape:cx="99.290671"
     inkscape:cy="-7.7292139"
     inkscape:window-width="2560"
     inkscape:window-height="1387"
     inkscape:window-x="-8"
     inkscape:window-y="22"
     inkscape:window-maximized="1"
     inkscape:current-layer="layer1" />
  <defs
     id="defs2">
    <clipPath
       clipPathUnits="userSpaceOnUse"
       id="clipPath5937">
      <path
         style="opacity:1;fill:none;fill-opacity:1;stroke:#000000;stroke-width:0.529167;stroke-linecap:round;stroke-linejoin:round;stroke-dasharray:none;stroke-dashoffset:31.4961;stroke-opacity:1"
         d="m -18.508736,-11.305811 3.932733,-7.393538 c 0,0 7.0789192,6.685646 7.7081565,7.314884 0.6292374,0.629237 4.5619703,-7.550848 4.5619703,-7.550848 0,0 6.7643006,7.314884 7.1575739,7.314884 0.3932734,0 7.1575743,-9.202596 7.1575743,-9.202596 L 0.60434609,-24.362484 13.896984,-30.497547 0.3683821,-34.272971 10.750798,-44.57673 l -15.6522781,-1.573094 3.8540783,9.910488 -12.3487812,2.04502 2.280985,-9.753177 -10.775688,-0.943856 5.269862,8.416047 -6.056409,6.842956 11.090307,3.539459 c 0,0 -13.68591,6.685646 -13.371291,6.685646 0.314619,0 13.056673,-1.337129 13.056673,-1.337129 l -11.011653,8.652013 z"
         id="path5939" />
    </clipPath>
  </defs>
  <g
     inkscape:label="Warstwa 1"
     inkscape:groupmode="layer"
     id="layer1">
    <path
       id="rect234"
       style="opacity:1;fill:#ffffff;fill-opacity:1;stroke:none;stroke-width:0.852507;stroke-linecap:round;stroke-linejoin:round"
       d="m -89.12039,15.553543 v 26.458333 h 26.458334 V 15.553543 Z m 1.322917,1.322917 h 23.8125 v 23.8125 h -23.8125 z"
       inkscape:export-filename="perfect.png"
       inkscape:export-xdpi="96"
       inkscape:export-ydpi="96" />
    <path
       id="path912"
       style="opacity:1;fill:#ffffff;fill-opacity:1;stroke:none;stroke-width:0.852507;stroke-linecap:round;stroke-linejoin:round"
       d="m -38.499054,68.377243 v 13.36352 l 1.322917,-0.48059 v -11.56002 h 11.90625 v -1.32291 z m 17.132288,0 0.532783,1.32291 h 7.470345 v 8.82686 l 1.32292,0.67901 v -10.82878 z m 9.326048,17.82268 -1.32292,1.03922 v 6.27351 h -1.15238 l 0.27233,1.32292 h 2.20297 z m -20.797183,7.31273 -0.79375,1.32292 h 8.282182 l -0.727604,-1.32292 z"
       inkscape:export-filename="perfect2.png"
       inkscape:export-xdpi="96"
       inkscape:export-ydpi="96" />
    <path
       id="path976"
       style="opacity:1;fill:#ffffff;fill-opacity:1;stroke:none;stroke-width:0.809882;stroke-linecap:round;stroke-linejoin:round"
       d="m -25.269881,69.038693 v 1.25677 h 4.21411 l -0.506145,-1.25677 z m 11.310933,9.64229 v 8.27602 l 1.25677,-0.98725 v -6.6437 z m -22.621872,2.59649 -1.256771,0.45657 v 12.44007 h 4.624034 l 0.754062,-1.25678 h -4.121325 z m 10.544112,11.63986 0.691224,1.25678 h 10.550486 l -0.25871,-1.25678 z" />
    <path
       id="rect4580"
       style="opacity:1;fill:#ffffff;fill-opacity:1;stroke:none;stroke-width:3.19386;stroke-linecap:round;stroke-linejoin:round;stroke-dashoffset:31.4961;stroke-opacity:1"
       d="M -88.033386 -23.975281 C -89.147966 -23.975281 -90.04515 -23.078097 -90.04515 -21.963517 L -90.04515 0.4707723 C -90.04515 1.5853519 -89.147966 2.4830526 -88.033386 2.4830526 L -65.599097 2.4830526 C -64.484517 2.4830526 -63.586816 1.5853519 -63.586816 0.4707723 L -63.586816 -21.963517 C -63.586816 -23.078097 -64.484517 -23.975281 -65.599097 -23.975281 L -88.033386 -23.975281 z M -86.912008 -22.652364 L -66.720475 -22.652364 C -65.717354 -22.652364 -64.909733 -21.844744 -64.909733 -20.841622 L -64.909733 -0.65060628 C -64.909733 0.35251533 -65.717354 1.1601359 -66.720475 1.1601359 L -86.912008 1.1601359 C -87.915129 1.1601359 -88.722233 0.35251533 -88.722233 -0.65060628 L -88.722233 -20.841622 C -88.722233 -21.844744 -87.915129 -22.652364 -86.912008 -22.652364 z "
       inkscape:export-filename="..\VerticalFlappyCube(UnityProject)\Assets\0005Textures\perfect.png"
       inkscape:export-xdpi="245.75999"
       inkscape:export-ydpi="245.75999" />
    <g
       id="g5948"
       inkscape:export-filename="..\VerticalFlappyCube(UnityProject)\Assets\0005Textures\perfect2.png"
       inkscape:export-xdpi="245.75999"
       inkscape:export-ydpi="245.75999">
      <path
         id="path5941"
         style="opacity:1;fill:#ffffff;fill-opacity:1;stroke:none;stroke-width:3.03417;stroke-linecap:round;stroke-linejoin:round;stroke-dashoffset:31.4961;stroke-opacity:1"
         d="m -18.760369,-39.548929 c -1.058849,0 -1.911175,0.852326 -1.911175,1.911175 v 7.247051 l 1.256771,-1.420249 v -4.761001 c 0,-0.927484 0.726724,-1.67675 1.644111,-1.716278 l -0.789409,-1.260698 z m 7.182249,0 -0.294065,1.256771 h 9.449835 l -0.4884714,-1.256771 z m 16.0306984,1.702532 -1.247443,1.237625 c 2.604e-4,0.01238 0.00197,0.02438 0.00197,0.03682 v 3.958337 l 1.2567707,0.350521 v -5.374659 c 0,-0.07059 -0.0039,-0.140087 -0.011292,-0.208643 z m -25.1241224,9.134171 v 7.616719 c 0.408479,-0.204092 0.813385,-0.406212 1.256771,-0.626422 v -6.58921 z m 25.1354137,2.70893 -1.2567707,0.579784 v 2.253842 l 1.2567707,0.389795 z m -23.8786427,6.177814 c -0.436879,0.045 -0.854549,0.08796 -1.256771,0.129114 v 3.37119 c 0,0.840708 0.537791,1.549897 1.289172,1.807099 l 1.483087,-1.165459 c -0.855905,-0.100436 -1.515488,-0.823143 -1.515488,-1.70695 z m 3.671636,4.155199 -0.668151,1.256771 h 6.8027629 c -0.4925059,-0.466918 -0.8254999,-0.783513 -1.3255009,-1.256771 z m 11.622183,0 c -0.2223045,0.420345 -0.4516156,0.846633 -0.6804236,1.256771 H 1.773104 c -0.3960334,-0.410296 -0.79744221,-0.829817 -1.20276875,-1.256771 z" />
      <path
         id="path5742"
         style="opacity:1;fill:#ffffff;fill-opacity:1;stroke:none;stroke-width:3.19386;stroke-linecap:round;stroke-linejoin:round;stroke-dashoffset:31.4961;stroke-opacity:1"
         d="m -19.446522,-40.650069 c -1.11458,0 -2.011764,0.897184 -2.011764,2.011764 v 22.434289 c 0,1.11458 0.897184,2.012281 2.011764,2.012281 H 2.9877672 c 1.11458,0 2.012281,-0.897701 2.012281,-2.012281 v -22.434289 c 0,-1.11458 -0.897701,-2.011764 -2.012281,-2.011764 z m 1.121378,1.322917 H 1.8663892 c 1.003121,0 1.810742,0.80762 1.810742,1.810742 v 20.191016 c 0,1.003121 -0.807621,1.810742 -1.810742,1.810742 H -18.325144 c -1.003121,0 -1.810225,-0.807621 -1.810225,-1.810742 V -37.51641 c 0,-1.003122 0.807104,-1.810742 1.810225,-1.810742 z"
         inkscape:export-filename="..\VerticalFlappyCube(UnityProject)\Assets\0005Textures\perfect.png"
         inkscape:export-xdpi="245.75999"
         inkscape:export-ydpi="245.75999"
         clip-path="url(#clipPath5937)"
         transform="translate(0.12528495,0.4396815)" />
    </g>
    <path
       id="path5933"
       style="opacity:1;fill:#ffffff;fill-opacity:1;stroke:none;stroke-width:3.19386;stroke-linecap:round;stroke-linejoin:round;stroke-dashoffset:31.4961;stroke-opacity:1"
       d="m 80.602207,-55.751764 c -1.11458,0 -2.011764,0.897184 -2.011764,2.011764 v 22.434289 c 0,1.11458 0.897184,2.012281 2.011764,2.012281 H 103.0365 c 1.11458,0 2.01228,-0.897701 2.01228,-2.012281 V -53.74 c 0,-1.11458 -0.8977,-2.011764 -2.01228,-2.011764 z m 1.121378,1.322917 h 20.191535 c 1.00312,0 1.81074,0.80762 1.81074,1.810742 v 20.191016 c 0,1.003121 -0.80762,1.810742 -1.81074,1.810742 H 81.723585 c -1.003121,0 -1.810225,-0.807621 -1.810225,-1.810742 v -20.191016 c 0,-1.003122 0.807104,-1.810742 1.810225,-1.810742 z"
       inkscape:export-filename="..\VerticalFlappyCube(UnityProject)\Assets\0005Textures\perfect.png"
       inkscape:export-xdpi="245.75999"
       inkscape:export-ydpi="245.75999" />
    <path
       style="opacity:1;fill:none;fill-opacity:1;stroke:#000000;stroke-width:0.529167;stroke-linecap:round;stroke-linejoin:round;stroke-dasharray:none;stroke-dashoffset:31.4961;stroke-opacity:1"
       d="m 81.539993,-26.407506 3.932733,-7.393538 c 0,0 7.078919,6.685646 7.708156,7.314884 0.629237,0.629237 4.56197,-7.550848 4.56197,-7.550848 0,0 6.764298,7.314884 7.157578,7.314884 0.39327,0 7.15757,-9.202596 7.15757,-9.202596 l -11.40493,-3.539459 13.29264,-6.135064 -13.5286,-3.775424 10.38242,-10.303759 -15.652281,-1.573093 3.854078,9.910487 -12.348781,2.04502 2.280985,-9.753176 -10.775688,-0.943856 5.269862,8.416046 -6.056409,6.842956 11.090307,3.53946 c 0,0 -13.68591,6.685646 -13.371291,6.685646 0.314619,0 13.056673,-1.337129 13.056673,-1.337129 l -11.011653,8.652013 z"
       id="path5935" />
  </g>
</svg>
