<?xml version="1.0" encoding="UTF-8" standalone="no"?>
<!-- Created with Inkscape (http://www.inkscape.org/) -->

<svg
   width="210mm"
   height="297mm"
   viewBox="0 0 210 297"
   version="1.1"
   id="svg4904"
   inkscape:version="1.2.1 (9c6d41e410, 2022-07-14)"
   sodipodi:docname="skins.svg"
   xmlns:inkscape="http://www.inkscape.org/namespaces/inkscape"
   xmlns:sodipodi="http://sodipodi.sourceforge.net/DTD/sodipodi-0.dtd"
   xmlns="http://www.w3.org/2000/svg"
   xmlns:svg="http://www.w3.org/2000/svg">
  <sodipodi:namedview
     id="namedview4906"
     pagecolor="#ffffff"
     bordercolor="#000000"
     borderopacity="0.25"
     inkscape:showpageshadow="2"
     inkscape:pageopacity="0.0"
     inkscape:pagecheckerboard="0"
     inkscape:deskcolor="#d1d1d1"
     inkscape:document-units="mm"
     showgrid="false"
     inkscape:zoom="0.35355339"
     inkscape:cx="1079.0449"
     inkscape:cy="1346.3313"
     inkscape:window-width="2560"
     inkscape:window-height="1387"
     inkscape:window-x="-8"
     inkscape:window-y="22"
     inkscape:window-maximized="1"
     inkscape:current-layer="layer1" />
  <defs
     id="defs4901">
    <clipPath
       clipPathUnits="userSpaceOnUse"
       id="clipPath14805">
      <rect
         style="opacity:1;fill:#000000;fill-opacity:1;stroke:none;stroke-width:2.64583;stroke-linecap:round;stroke-linejoin:round;stroke-dasharray:2.64583, 7.9375;stroke-dashoffset:6.08542;stroke-opacity:1"
         id="rect14807"
         width="116.74332"
         height="43.404568"
         x="371.55811"
         y="66.145836" />
    </clipPath>
    <clipPath
       clipPathUnits="userSpaceOnUse"
       id="clipPath484">
      <circle
         style="fill:#ffffff;stroke-width:4.53274;stroke-linecap:round;stroke-linejoin:round;stroke-dasharray:4.53274, 13.5982;stroke-dashoffset:10.4253"
         id="circle486"
         cx="469.52264"
         cy="335"
         r="25" />
    </clipPath>
  </defs>
  <g
     inkscape:label="Warstwa 1"
     inkscape:groupmode="layer"
     id="layer1">
    <g
       id="g14554"
       inkscape:export-filename="..\VerticalFlappyCube(UnityProject)\Assets\0005Textures\char6.png"
       inkscape:export-xdpi="122.88"
       inkscape:export-ydpi="122.88"
       transform="translate(-47.751837,-57.295207)"
       style="fill:#ff0000">
      <rect
         style="fill:#ff0000;fill-opacity:1;stroke:none;stroke-width:0.46875;stroke-linecap:round;stroke-linejoin:round;stroke-dasharray:none;stroke-opacity:1"
         id="rect14523"
         width="17.638893"
         height="17.638882"
         x="305.70288"
         y="492.79147"
         rx="3.1426976"
         ry="3.9949524"
         inkscape:export-filename="..\VerticalFlappyCube(UnityProject)\Assets\0005Textures\char6.png"
         inkscape:export-xdpi="122.88"
         inkscape:export-ydpi="122.88" />
      <rect
         style="fill:#ff0000;fill-opacity:1;stroke:none;stroke-width:0.46875;stroke-linecap:round;stroke-linejoin:round;stroke-dasharray:none;stroke-opacity:1"
         id="rect14527"
         width="17.638893"
         height="17.638882"
         x="340.98065"
         y="492.79147"
         rx="3.1426976"
         ry="3.9949524" />
      <rect
         style="fill:#ff0000;fill-opacity:1;stroke:none;stroke-width:0.46875;stroke-linecap:round;stroke-linejoin:round;stroke-dasharray:none;stroke-opacity:1"
         id="rect14535"
         width="17.638893"
         height="17.638882"
         x="323.34177"
         y="510.43036"
         rx="3.1426976"
         ry="3.9949524" />
      <rect
         style="fill:#ff0000;fill-opacity:1;stroke:none;stroke-width:0.46875;stroke-linecap:round;stroke-linejoin:round;stroke-dasharray:none;stroke-opacity:1"
         id="rect14543"
         width="17.638893"
         height="17.638882"
         x="305.70288"
         y="528.06927"
         rx="3.1426976"
         ry="3.9949524" />
      <rect
         style="fill:#ff0000;fill-opacity:1;stroke:none;stroke-width:0.46875;stroke-linecap:round;stroke-linejoin:round;stroke-dasharray:none;stroke-opacity:1"
         id="rect14547"
         width="17.638893"
         height="17.638882"
         x="340.98065"
         y="528.06927"
         rx="3.1426976"
         ry="3.9949524" />
    </g>
    <g
       id="g14521"
       transform="matrix(1.0181349,0,0,1.0181345,-12.74601,-81.377259)"
       inkscape:export-filename="..\VerticalFlappyCube(UnityProject)\Assets\0005Textures\obs6.png"
       inkscape:export-xdpi="81.919998"
       inkscape:export-ydpi="81.919998">
      <rect
         style="fill:#000000;fill-opacity:1;stroke:none;stroke-width:0.47127;stroke-linecap:round;stroke-linejoin:round;stroke-dasharray:none;stroke-opacity:1"
         id="rect14453"
         width="25.987062"
         height="25.987062"
         x="2.9417675"
         y="489.37234"
         rx="3.49001"
         ry="3.6361883" />
      <rect
         style="fill:#000000;fill-opacity:1;stroke:none;stroke-width:0.47127;stroke-linecap:round;stroke-linejoin:round;stroke-dasharray:none;stroke-opacity:1"
         id="rect14459"
         width="25.987062"
         height="25.987062"
         x="28.928829"
         y="515.35944"
         rx="3.49001"
         ry="3.6361883" />
      <rect
         style="fill:#000000;fill-opacity:1;stroke:none;stroke-width:0.47127;stroke-linecap:round;stroke-linejoin:round;stroke-dasharray:none;stroke-opacity:1"
         id="rect14461"
         width="25.987062"
         height="25.987062"
         x="2.9417675"
         y="541.3465"
         rx="3.49001"
         ry="3.6361883" />
      <rect
         style="fill:#000000;fill-opacity:1;stroke:none;stroke-width:0.47127;stroke-linecap:round;stroke-linejoin:round;stroke-dasharray:none;stroke-opacity:1"
         id="rect14465"
         width="25.987062"
         height="25.987062"
         x="54.915894"
         y="489.37234"
         rx="3.49001"
         ry="3.6361883" />
      <rect
         style="fill:#000000;fill-opacity:1;stroke:none;stroke-width:0.47127;stroke-linecap:round;stroke-linejoin:round;stroke-dasharray:none;stroke-opacity:1"
         id="rect14471"
         width="25.987062"
         height="25.987062"
         x="80.902954"
         y="515.35944"
         rx="3.49001"
         ry="3.6361883" />
      <rect
         style="fill:#000000;fill-opacity:1;stroke:none;stroke-width:0.47127;stroke-linecap:round;stroke-linejoin:round;stroke-dasharray:none;stroke-opacity:1"
         id="rect14473"
         width="25.987062"
         height="25.987062"
         x="54.915894"
         y="541.3465"
         rx="3.49001"
         ry="3.6361883" />
      <rect
         style="fill:#000000;fill-opacity:1;stroke:none;stroke-width:0.47127;stroke-linecap:round;stroke-linejoin:round;stroke-dasharray:none;stroke-opacity:1"
         id="rect14477"
         width="25.987062"
         height="25.987062"
         x="106.89001"
         y="489.37234"
         rx="3.49001"
         ry="3.6361883" />
      <rect
         style="fill:#000000;fill-opacity:1;stroke:none;stroke-width:0.47127;stroke-linecap:round;stroke-linejoin:round;stroke-dasharray:none;stroke-opacity:1"
         id="rect14483"
         width="25.987062"
         height="25.987062"
         x="132.87708"
         y="515.35944"
         rx="3.49001"
         ry="3.6361883" />
      <rect
         style="fill:#000000;fill-opacity:1;stroke:none;stroke-width:0.47127;stroke-linecap:round;stroke-linejoin:round;stroke-dasharray:none;stroke-opacity:1"
         id="rect14485"
         width="25.987062"
         height="25.987062"
         x="106.89001"
         y="541.3465"
         rx="3.49001"
         ry="3.6361883" />
      <rect
         style="fill:#000000;fill-opacity:1;stroke:none;stroke-width:0.47127;stroke-linecap:round;stroke-linejoin:round;stroke-dasharray:none;stroke-opacity:1"
         id="rect14489"
         width="25.987062"
         height="25.987062"
         x="158.86414"
         y="489.37234"
         rx="3.49001"
         ry="3.6361883" />
      <rect
         style="fill:#000000;fill-opacity:1;stroke:none;stroke-width:0.47127;stroke-linecap:round;stroke-linejoin:round;stroke-dasharray:none;stroke-opacity:1"
         id="rect14493"
         width="25.987062"
         height="25.987062"
         x="158.86414"
         y="541.3465"
         rx="3.49001"
         ry="3.6361883" />
      <rect
         style="fill:#000000;fill-opacity:1;stroke:none;stroke-width:0.47127;stroke-linecap:round;stroke-linejoin:round;stroke-dasharray:none;stroke-opacity:1"
         id="rect14497"
         width="25.987062"
         height="25.987062"
         x="184.8512"
         y="515.35944"
         rx="3.49001"
         ry="3.6361883" />
      <rect
         style="fill:#000000;fill-opacity:1;stroke:none;stroke-width:0.47127;stroke-linecap:round;stroke-linejoin:round;stroke-dasharray:none;stroke-opacity:1"
         id="rect14501"
         width="25.987062"
         height="25.987062"
         x="210.83826"
         y="489.37234"
         rx="3.49001"
         ry="3.6361883" />
      <rect
         style="fill:#000000;fill-opacity:1;stroke:none;stroke-width:0.47127;stroke-linecap:round;stroke-linejoin:round;stroke-dasharray:none;stroke-opacity:1"
         id="rect14505"
         width="25.987062"
         height="25.987062"
         x="210.83826"
         y="541.3465"
         rx="3.49001"
         ry="3.6361883" />
    </g>
    <rect
       style="fill:#000000;stroke:none;stroke-width:2.83601;stroke-linecap:round;stroke-linejoin:bevel;stroke-dasharray:none;stroke-opacity:1"
       id="rect14363"
       width="238.125"
       height="79.375"
       x="0"
       y="-39.6875"
       rx="5"
       ry="5"
       inkscape:export-filename="..\VerticalFlappyCube(UnityProject)\Assets\0005Textures\obs1.png"
       inkscape:export-xdpi="81.919998"
       inkscape:export-ydpi="81.919998" />
    <path
       id="rect10005"
       style="fill:#000000;stroke:none;stroke-width:2.83601;stroke-linecap:round;stroke-linejoin:bevel;stroke-dasharray:none;stroke-opacity:1"
       d="M 5.0002116,44.202334 C 2.2302144,44.202334 0,46.432034 0,49.202024 v 69.375096 c 0,2.76999 2.2302144,5.00021 5.0002116,5.00021 H 233.12479 c 2.77,0 5.00021,-2.23022 5.00021,-5.00021 V 49.202024 c 0,-2.76999 -2.23021,-4.99969 -5.00021,-4.99969 z m 6.3365644,6.61458 H 226.78823 c 2.61611,0 4.72219,1.85834 4.72219,4.16667 v 57.812486 c 0,2.30833 -2.10608,4.16667 -4.72219,4.16667 H 11.336776 c -2.616109,0 -4.7221926,-1.85834 -4.7221926,-4.16667 V 54.983584 c 0,-2.30833 2.1060836,-4.16667 4.7221926,-4.16667 z"
       inkscape:export-filename="..\VerticalFlappyCube(UnityProject)\Assets\0005Textures\obs2.png"
       inkscape:export-xdpi="81.919998"
       inkscape:export-ydpi="81.919998" />
    <rect
       style="fill:#ff0000;stroke:none;stroke-width:1.64232;stroke-linecap:round;stroke-linejoin:bevel;stroke-dasharray:none;stroke-opacity:1"
       id="rect10025"
       width="52.916668"
       height="52.916668"
       x="268.80753"
       y="-24.936924"
       rx="5"
       ry="5"
       inkscape:export-filename="..\VerticalFlappyCube(UnityProject)\Assets\0005Textures\char1.png"
       inkscape:export-xdpi="122.88"
       inkscape:export-ydpi="122.88" />
    <rect
       style="fill:#000000;stroke:none;stroke-width:2.83601;stroke-linecap:round;stroke-linejoin:bevel;stroke-dasharray:none;stroke-opacity:1;opacity:0.25"
       id="rect14363-3"
       width="238.125"
       height="79.375"
       x="-4.1344075"
       y="607.43439"
       rx="5"
       ry="5"
       inkscape:export-filename="..\VerticalFlappyCube(UnityProject)\Assets\0005Textures\obs8.png"
       inkscape:export-xdpi="81.919998"
       inkscape:export-ydpi="81.919998" />
    <rect
       style="fill:#ff0000;stroke:none;stroke-width:1.64232;stroke-linecap:round;stroke-linejoin:bevel;stroke-dasharray:none;stroke-opacity:1;opacity:0.25"
       id="rect10025-2"
       width="52.916668"
       height="52.916668"
       x="264.6731"
       y="622.18494"
       rx="5"
       ry="5"
       inkscape:export-filename="..\VerticalFlappyCube(UnityProject)\Assets\0005Textures\char8.png"
       inkscape:export-xdpi="122.88"
       inkscape:export-ydpi="122.88" />
    <path
       id="rect10027"
       style="fill:#ff0000;stroke:none;stroke-width:1.64232;stroke-linecap:round;stroke-linejoin:bevel;stroke-dasharray:none;stroke-opacity:1"
       d="m 264.82749,56.682629 c -2.77,0 -5.00021,2.23021 -5.00021,5.00021 V 104.5996 c 0,2.76999 2.23021,4.99969 5.00021,4.99969 h 42.91676 c 2.77,0 4.99969,-2.2297 4.99969,-4.99969 V 61.682839 c 0,-2.77 -2.22969,-5.00021 -4.99969,-5.00021 z m 5.36453,6.61458 h 32.1877 c 2.0775,0 3.74964,1.672656 3.74964,3.750156 v 32.187703 c 0,2.077502 -1.67214,3.749642 -3.74964,3.749642 h -32.1877 c -2.0775,0 -3.75016,-1.67214 -3.75016,-3.749642 V 67.047365 c 0,-2.0775 1.67266,-3.750156 3.75016,-3.750156 z"
       inkscape:export-filename="..\VerticalFlappyCube(UnityProject)\Assets\0005Textures\char2.png"
       inkscape:export-xdpi="122.88"
       inkscape:export-ydpi="122.88" />
    <path
       style="fill:none;stroke:#000000;stroke-width:2.76982;stroke-linecap:round;stroke-linejoin:bevel;stroke-dasharray:none;stroke-opacity:1"
       d="M -6.8469912,217.28286 H 228.50819 v -76.60517"
       id="path10177"
       inkscape:export-filename="..\VerticalFlappyCube(UnityProject)\Assets\0005Textures\obs3.png"
       inkscape:export-xdpi="81.919998"
       inkscape:export-ydpi="81.919998" />
    <path
       style="fill:none;stroke:#ff0000;stroke-width:2.83599;stroke-linecap:round;stroke-linejoin:bevel;stroke-dasharray:none;stroke-opacity:1"
       d="m 261.4358,202.44519 v -52.91667 h 52.91664 v 52.91667"
       id="path10907"
       inkscape:export-filename="..\VerticalFlappyCube(UnityProject)\Assets\0005Textures\char3.png"
       inkscape:export-xdpi="116.62946"
       inkscape:export-ydpi="116.62946" />
    <path
       style="fill:none;fill-opacity:1;stroke:#000000;stroke-width:2.58815;stroke-linecap:round;stroke-linejoin:round;stroke-dasharray:none;stroke-opacity:1"
       d="M 7.0453237,303.02112 -3.4230052,292.78288 17.513651,303.02112 -3.4230052,282.54461 27.98198,303.02112 -3.4230052,272.30638 38.450306,303.02112 -3.4230052,262.06815 48.918635,303.02112 -3.4230052,251.82989 59.386964,303.02112 -3.4230042,241.59165 69.855294,303.02112 -3.4230042,231.35339 80.323626,303.02112 1.8111596,226.23427 90.791957,303.02112 12.279489,226.23427 101.2603,303.02112 22.747817,226.23427 l 88.980803,76.78685 -78.512476,-76.78685 88.980806,76.78685 -78.512477,-76.78685 88.980807,76.78685 -78.512479,-76.78685 88.980809,76.78685 -78.512479,-76.78685 88.980799,76.78685 -78.512474,-76.78685 88.980784,76.78685 -78.512453,-76.78685 88.980793,76.78685 -78.512461,-76.78685 88.980791,76.78685 -78.51246,-76.78685 88.98077,76.78685 -78.51244,-76.78685 88.98077,76.78685 -78.51243,-76.78685 88.98075,76.78685 -78.51242,-76.78685 88.98075,76.78685 -78.51243,-76.78685 83.74659,71.6677 -73.27827,-71.6677 73.27827,61.42947 -62.80994,-61.42947 62.80994,51.19123 -52.34162,-51.19123 52.34162,40.95297 -41.87329,-40.95297 41.87329,30.71473 -31.40497,-30.71473 31.40497,20.47648 -20.93664,-20.47648 20.93664,10.23823 -10.46831,-10.23823 h 10.46831"
       id="path11141"
       inkscape:export-filename="..\VerticalFlappyCube(UnityProject)\Assets\0005Textures\obs4.png"
       inkscape:export-xdpi="81.919983"
       inkscape:export-ydpi="81.919983" />
    <path
       style="fill:none;fill-opacity:1;stroke:#ff0000;stroke-width:1.32292;stroke-linecap:round;stroke-linejoin:round;stroke-dasharray:none;stroke-opacity:1"
       d="m 261.67153,288.26642 h 5.29164 l -5.29164,-5.29164 10.58331,5.29164 -10.58331,-10.58333 15.87495,10.58333 -15.87495,-15.875 21.16661,15.875 -21.16661,-21.16666 26.45828,21.16666 -26.45828,-26.45833 31.74992,26.45833 -31.74992,-31.74994 37.04159,31.74994 -37.04159,-37.04161 42.33325,37.04161 -42.33325,-42.33328 47.62489,42.33328 -47.62489,-47.62492 52.91656,47.62492 -52.91656,-52.91658 52.91656,47.62494 -47.62492,-47.62494 47.62492,42.33325 -42.33325,-42.33325 42.33325,37.04158 -37.04161,-37.04158 37.04161,31.74992 -31.74995,-31.74992 31.74995,26.45825 -26.45828,-26.45825 26.45828,21.16664 -21.16664,-21.16664 21.16664,15.87497 -15.87497,-15.87497 15.87497,10.5833 -10.58331,-10.5833 10.58331,5.29166 -5.29167,-5.29166 h 5.29167"
       id="path11305"
       inkscape:export-filename="..\VerticalFlappyCube(UnityProject)\Assets\0005Textures\char4.png"
       inkscape:export-xdpi="119.88314"
       inkscape:export-ydpi="119.88314" />
    <g
       id="g14423"
       inkscape:export-filename="..\VerticalFlappyCube(UnityProject)\Assets\0005Textures\obs5.png"
       inkscape:export-xdpi="81.919632"
       inkscape:export-ydpi="81.919632"
       transform="translate(9.2304428,-61.830165)">
      <path
         style="fill:#000000;fill-opacity:1;stroke:#000000;stroke-width:1.4368;stroke-linecap:round;stroke-linejoin:round;stroke-dasharray:none;stroke-opacity:1"
         id="path13611"
         d="m 226.33638,462.60364 c -3.59038,-2.39851 -7.12359,-4.92698 -10.30658,-7.85936 -2.37158,-2.18479 -3.02218,-3.04016 -5.1642,-5.45298 -3.5091,-4.20363 -6.5191,-8.89293 -8.34236,-14.0895 -0.30199,-0.86073 -0.52788,-1.74644 -0.79183,-2.61967 -0.81269,-3.78771 -1.16068,-7.91584 0.28501,-11.61321 0.29664,-0.75868 0.71338,-1.4644 1.07007,-2.19662 2.30056,-4.1897 5.42755,-7.78713 8.8725,-11.05772 2.13907,-2.20944 4.53493,-4.12761 6.85701,-6.13039 1.80369,-1.44831 3.27236,-3.11802 4.4413,-5.10831 1.1833,-2.34087 1.21338,-3.72247 -0.12119,-5.98892 -0.6905,-0.7596 -0.7503,-0.95359 -1.68782,-1.45019 -1.65296,-0.87556 -3.28921,-1.79666 -5.01455,-2.51825 -1.15754,-0.4841 -4.66373,-0.48267 -5.92012,-0.50375 -4.77339,0.0293 -9.54309,0.22797 -14.28107,0.81816 -7.17517,0.91139 -14.16698,2.69233 -21.04901,4.87745 -9.10891,3.15678 -17.34576,8.19826 -25.50643,13.23844 -5.9852,3.90479 -12.22215,7.44328 -18.08534,11.53288 -2.36185,1.8083 -4.63018,4.01689 -4.55525,7.2399 0.0444,1.90746 0.53463,2.36932 1.39765,4.02034 0.61057,0.59025 1.11447,1.31701 1.83173,1.77078 2.07643,1.31366 4.23718,2.51339 6.48931,3.4936 2.22318,0.96758 7.05251,1.63502 9.24322,1.89638 4.91112,0.58595 7.08662,0.58471 12.06175,0.80139 7.17983,0.0313 14.43083,0.0773 21.5559,-0.97161 3.69892,-0.54451 4.33678,-0.83882 7.85335,-1.82334 3.194,-1.06595 6.13918,-2.62744 8.93926,-4.47807 0.58558,-0.38703 3.31209,-2.36974 4.06269,-2.69781 0.71559,-0.31272 1.50677,-0.40964 2.26016,-0.6145 2.34647,-0.27565 4.73415,-0.33502 7.00525,0.43476 0.6526,0.22119 2.55951,0.96432 1.87772,0.86565 -1.91082,-0.27662 -3.13927,-2.27031 -0.71961,0.6955 0.27423,0.65643 0.64385,1.28054 0.82268,1.96929 1.19893,4.61753 -1.92995,8.61824 -4.64209,11.94198 -2.88011,3.2004 -6.23169,5.95469 -10.00238,8.04046 -2.4881,1.37629 -3.54674,1.69967 -6.16351,2.73499 -3.05195,0.90196 -6.16293,1.07747 -9.23693,0.12129 -1.04296,-0.3244 -2.01676,-0.84161 -3.0096,-1.29757 -0.19505,-0.0896 0.76601,0.34764 0.6129,0.19693 -0.86276,-0.8491 -1.85504,-1.55482 -2.78256,-2.33223 -4.29254,-4.4339 -7.77088,-9.89553 -8.8241,-16.0855 -0.18677,-1.09774 -0.18744,-2.21924 -0.28116,-3.32888 0.2121,-3.56545 0.74757,-7.44902 3.43513,-10.07801 1.335,-1.30592 2.52121,-1.7567 4.15484,-2.59654 1.46698,-0.74934 3.42464,-1.22659 4.55176,-2.55678 0.23848,-0.28144 0.50846,-0.98355 0.0334,-1.28301 -1.43734,-0.90608 -3.00633,-1.58271 -4.5095,-2.37405 -5.18055,0.12064 -10.1832,1.83907 -15.00404,3.60337 -3.88255,1.46989 -7.61833,3.36616 -11.04472,5.72164 -1.75432,1.20604 -3.62535,2.7113 -5.29942,4.02038 -3.58516,2.99074 -6.90125,6.3013 -10.7132,9.01341 -2.94571,2.09579 -3.29217,2.16468 -6.50909,3.94205 -3.10446,1.42748 -4.83417,2.33822 -8.15864,3.3675 -10.50643,3.2529 -22.119627,3.52121 -33.008141,4.13644 -12.034997,0.45645 -24.180173,0.4959 -36.110783,-1.40211 -5.225144,-0.83125 -7.354065,-1.51262 -12.333437,-2.8205 -3.914311,-1.2557 -5.178109,-1.57188 -8.829896,-3.05347 -0.971664,-0.39423 -1.976146,-0.73749 -2.873497,-1.28074 -0.806421,-0.48821 1.662079,1.01035 2.598324,1.11415 0.874192,0.097 1.712737,-0.41271 2.583089,-0.53974 2.3197,-0.33851 4.653608,-0.57061 6.980413,-0.85591 25.724336,-2.03338 51.532034,-3.56411 77.347328,-3.47542 5.02935,0.0173 10.05691,0.19365 15.08536,0.29049 14.00084,0.81601 28.50182,1.28542 41.73878,6.43806 -0.70269,-0.39127 -1.34088,-0.93362 -2.10808,-1.17386 -0.13027,-0.0408 1.19577,0.6593 0.85697,1.45666 -0.50112,1.17943 -3.55647,2.92017 -4.45307,3.48994 -2.29358,1.29225 -4.44694,2.62016 -6.96824,3.48183 -5.01602,1.71425 -9.58211,2.35914 -14.90663,2.93453 -6.73926,0.72826 -12.5311,0.84688 -19.2852,1.1158 -6.76221,-0.035 -13.72772,0.47813 -20.39739,-1.03634 -1.51942,-0.345 -2.98927,-0.89261 -4.442983,-1.45436 -0.245898,-0.0951 -0.412818,-0.32873 -0.613812,-0.49965 -1.494383,-1.27075 -2.981438,-2.55016 -4.472159,-3.82523 -1.821196,-1.81009 -3.654942,-3.60753 -5.463594,-5.4302 -6.886281,-6.93965 -7.744203,-8.09301 -15.228534,-15.10971 -8.284478,-7.76689 -16.938339,-15.09228 -25.660172,-22.35363 -2.436082,-2.88364 -6.185658,-4.40572 -8.750852,-7.17266 -0.117831,-0.12713 0.100816,-0.46633 0.272324,-0.44327 1.419189,0.19092 2.768344,0.73994 4.1685,1.04061 7.676789,1.64868 14.327724,2.72328 22.210751,4.1129 5.48795,0.86363 10.972659,1.74824 16.463858,2.59086 23.866433,3.66226 12.431722,1.74528 36.398603,5.55339 14.84187,2.35825 29.6387,4.93602 44.42965,7.59203 2.66969,0.49805 12.39299,2.42374 15.89441,2.72922 2.04473,0.1784 5.13356,0.5547 6.67778,-1.49052 1.43147,-1.89594 0.5778,-4.49905 0.31513,-6.47656 -1.13132,-3.74139 -1.17635,-4.20474 -2.62858,-7.78758 -0.72355,-1.78508 -1.66348,-4.09101 -2.94858,-5.61558 -1.897,-2.25052 -5.08571,-2.95772 -7.58646,-4.0428 -0.95989,0.18427 -1.93799,0.29049 -2.87966,0.5528 -1.20897,0.3368 -8.68133,3.07676 -9.1187,3.22487 -5.58757,1.89216 -11.78612,3.73311 -17.36536,5.48843 -3.8156,1.20046 -7.62341,2.42572 -11.43511,3.63856 -17.19667,5.62738 -34.404534,11.24362 -51.35028,17.59916 -19.451666,7.29823 -38.848679,14.74039 -58.214261,22.26497 0,0 2.946604,1.98337 2.946604,1.98337 v 0 c 19.406892,-7.65476 38.910971,-15.04404 58.572345,-22.01784 16.853012,-6.38633 33.874132,-12.31937 51.049262,-17.77784 3.83929,-1.19272 7.67315,-2.4032 11.51789,-3.57814 5.4694,-1.67147 12.07026,-3.56011 17.59782,-5.35008 0.8738,-0.28295 7.65227,-2.69302 9.2127,-3.07427 0.92221,-0.22531 1.87932,-0.26903 2.81898,-0.40353 -0.48183,-0.534 -2.10019,-1.30618 -1.44548,-1.60201 0.70932,-0.32051 1.33347,0.83994 1.85925,1.41503 1.35254,1.47937 2.30801,3.77917 3.0478,5.56086 1.44399,3.47767 1.5324,4.07277 2.64881,7.69524 0.24465,1.65163 1.11472,4.35124 -0.12643,6.02582 -1.40427,1.89469 -4.52714,1.53291 -6.32939,1.39155 -3.58266,-0.28096 -12.80646,-2.03521 -15.61758,-2.53485 -14.70205,-2.54548 -29.40812,-5.04049 -44.14627,-7.36954 -6.09501,-0.96318 -12.19489,-1.89503 -18.292327,-2.84256 -6.062596,-0.92472 -12.129756,-1.81983 -18.187789,-2.77415 -5.540037,-0.87272 -11.070648,-1.80459 -16.60597,-2.70687 -4.499693,-0.83567 -9.007967,-1.62613 -13.499075,-2.50702 -3.05394,-0.59898 -6.076526,-1.3538 -9.134389,-1.9323 -1.543643,-0.29204 -3.096418,-0.78227 -4.663846,-0.6781 -0.3517,0.0233 -0.543931,0.7336 -0.323672,1.00959 2.421582,3.03416 6.970463,3.96496 9.064441,7.30036 8.77164,7.24545 17.463161,14.56348 25.75821,22.36188 7.11888,6.69263 8.481416,8.33781 15.019318,15.01682 1.776217,1.81458 3.57066,3.61108 5.355989,5.41665 5.010562,4.41461 5.101858,4.99114 12.00174,8.32798 1.39723,0.67574 2.9303,1.0504 4.44805,1.37168 6.63688,1.4049 13.53644,0.8436 20.24798,0.84003 6.6135,-0.27966 12.7389,-0.44021 19.33604,-1.12581 5.48083,-0.56961 10.02373,-1.15731 15.18427,-2.8785 2.53612,-0.84584 4.76847,-2.19425 7.0849,-3.47515 0.97563,-0.61114 5.50753,-2.99796 4.80683,-4.80761 -0.84858,-2.1916 -6.58038,-1.61975 -5.91057,-3.82188 -13.14776,-4.82104 -27.41453,-5.20387 -41.23931,-5.89446 -5.0009,-0.0728 -10.00127,-0.21725 -15.00269,-0.21819 -25.971764,-0.005 -51.925969,1.49069 -77.833383,3.17197 -2.408609,0.25997 -4.849107,0.30974 -7.22583,0.77994 -1.085271,0.21468 -3.437462,0.21009 -3.072605,1.25741 0.608912,1.74789 2.995851,2.17501 4.592282,3.10483 0.890392,0.51861 1.879736,0.84535 2.838115,1.22286 3.693222,1.45482 4.811763,1.71878 8.777275,2.96009 4.991368,1.27372 7.044371,1.9194 12.282713,2.7163 11.909399,1.81175 24.017756,1.71031 36.018943,1.25173 7.561363,-0.41513 12.65554,-0.57219 20.12529,-1.44736 4.96822,-0.58207 8.55737,-1.1584 13.22628,-2.59179 3.34387,-1.02656 5.10839,-1.95814 8.22768,-3.39511 3.2228,-1.78459 3.61166,-1.87662 6.56133,-3.9805 3.81051,-2.71789 7.12313,-6.0362 10.72475,-9.01107 1.78717,-1.39004 3.41819,-2.70537 5.2909,-3.97853 3.41491,-2.32168 7.12736,-4.20018 10.98716,-5.65133 3.00921,-1.08692 5.96184,-2.06715 9.09794,-2.72441 1.37432,-0.28802 3.04507,-0.6068 4.47551,-0.66053 0.46504,-0.0175 0.92948,0.0487 1.39422,0.0732 -0.9522,-0.64312 -1.92192,-1.26083 -2.85657,-1.92929 -0.13746,-0.0984 0.39058,0.0598 0.45908,0.21459 0.20806,0.47007 -0.55727,0.89963 -0.98226,1.18744 -1.23642,0.83731 -2.20391,1.1875 -3.60155,1.81913 -1.71271,0.90823 -2.86045,1.34992 -4.25339,2.74631 -2.73006,2.73683 -3.30442,6.69836 -3.53758,10.37657 0.0874,1.1317 0.0806,2.27467 0.26216,3.39506 1.01245,6.24824 4.46255,11.78911 8.7239,16.32249 0.91709,0.7951 1.74652,1.70506 2.75128,2.38532 4.87497,3.30041 9.74792,6.36286 15.824,5.53569 1.0551,-0.14362 2.07138,-0.49587 3.10706,-0.74379 2.6006,-1.05115 3.72817,-1.41453 6.20432,-2.79573 3.80243,-2.12094 7.17675,-4.91553 10.08527,-8.15009 2.83626,-3.47276 5.97112,-7.48334 4.89762,-12.31008 -0.1603,-0.72074 -0.51193,-1.38477 -0.7679,-2.07714 -0.41451,-0.56087 -0.69185,-1.25685 -1.24357,-1.68254 -4.94931,-3.81853 -8.23767,-5.15625 -14.2601,-4.35867 -0.777,0.23716 -1.59236,0.37276 -2.33099,0.71151 -0.75149,0.34461 -3.42209,2.31717 -4.02689,2.71932 -2.75931,1.83481 -5.67558,3.36356 -8.83115,4.40512 -3.4819,0.96671 -4.11785,1.25528 -7.77722,1.79616 -7.08902,1.04781 -14.30274,1.02472 -21.44743,0.97272 -5.7642,-0.2735 -11.5884,-0.4692 -17.24844,-1.72852 -1.38831,-0.30888 -2.6872,-0.99503 -4.09403,-1.2031 -0.30873,-0.0457 0.88131,0.88153 0.63352,0.69128 -0.65646,-0.50408 -1.24439,-1.09207 -1.86658,-1.6381 -0.8866,-1.52174 -1.40183,-1.97718 -1.50474,-3.77831 -0.17773,-3.11039 2.1013,-5.21715 4.34363,-6.95358 5.83035,-4.09342 12.00852,-7.68053 17.96631,-11.58162 8.13684,-5.03705 16.37386,-10.03647 25.48103,-13.13376 6.89472,-2.15481 13.90049,-3.89859 21.08543,-4.75846 4.73417,-0.54684 9.496,-0.76229 14.26162,-0.75775 1.8763,0.0603 2.41392,0.0184 4.22965,0.29627 0.55636,0.0852 1.91437,0.83595 1.65506,0.33496 -0.4376,-0.84546 -1.59578,-1.04032 -2.3318,-1.64237 -0.55961,-0.4578 2.44987,1.3814 1.76014,1.26689 1.40879,2.08777 1.46807,3.306 0.3341,5.57048 -1.14675,1.94696 -2.60179,3.56869 -4.36044,4.99311 -2.3271,2.00212 -4.69198,3.95911 -6.82835,6.17414 -3.45619,3.32755 -6.59631,6.97116 -8.92837,11.1967 -0.37233,0.75094 -0.80692,1.47394 -1.11696,2.2528 -1.49666,3.76012 -1.16904,7.97648 -0.36863,11.84337 0.26161,0.88535 0.48432,1.78323 0.78479,2.6561 1.80594,5.24598 4.81894,9.989 8.33101,14.24205 2.08504,2.37975 2.82428,3.34428 5.1355,5.5026 3.13473,2.92736 6.62611,5.44953 10.16327,7.8569 0,0 3.96607,1.55636 3.96607,1.55636 z" />
      <path
         style="fill:none;fill-opacity:1;stroke:#000000;stroke-width:1.4368;stroke-linecap:round;stroke-linejoin:round;stroke-dasharray:none;stroke-opacity:1"
         d="m 204.11693,454.11247 c -1.58484,-0.58707 -3.26015,-0.97072 -4.75451,-1.7612 -2.41132,-1.2755 -4.59991,-2.93576 -6.89988,-4.40364 -4.18173,-2.51638 -8.202,-5.32484 -12.54522,-7.54912 -7.56865,-3.87615 -33.82032,-14.78524 -40.14469,-16.35642 -27.30573,-6.78356 -41.414443,-9.41503 -66.489647,-8.17824 -7.869408,0.38817 -18.614407,-0.29948 -24.463173,6.92004 -0.700429,0.86458 -0.760531,9.12986 -0.627268,10.0655 1.258224,8.83331 5.355923,7.38365 13.79974,6.29094 15.593655,-2.01797 30.281845,-3.53507 45.162778,-8.17821 4.48654,-1.3999 8.74535,-3.45405 13.17248,-5.03277 9.39121,-3.34884 24.45206,-8.25931 33.8721,-10.0655 16.76593,-3.21459 33.84195,-3.83444 50.80813,-5.03273 5.85484,-0.41351 11.70407,-0.91252 17.56329,-1.25817 1.25236,-0.0739 2.97988,-0.98249 3.76357,0 0.70339,0.88179 -0.67522,2.17712 -1.25452,3.14547 -1.93932,3.24164 -3.90638,6.49368 -6.27261,9.43638 -5.63316,7.00552 -19.2575,21.36087 -27.59948,25.16373 -8.54104,3.89365 -17.20768,3.70654 -26.34495,3.14549 -18.73558,-1.15044 -37.44251,-4.60971 -55.82622,-8.17822 -12.320063,-2.39151 -24.719945,-4.37017 -37.008391,-6.92003 -16.738937,-3.47333 -33.33652,-7.69128 -50.180872,-10.69458 -2.070876,-0.36923 -21.52130684,-4.31718 -24.4631721,-0.6291 -1.7524001,2.19689 2.16682254,5.23598 3.7635634,7.54912 8.0315412,11.635 16.7512577,26.75488 31.3630427,30.82556 3.833015,1.06784 8.334564,2.36185 11.917958,0.6291 8.739009,-4.22575 16.05341,-11.04368 23.208659,-17.61462 34.634602,-31.80627 21.118077,-30.81598 63.353342,-53.47293 1.43014,-0.76719 18.96617,-8.04217 25.7177,-5.03273 3.29176,1.46728 15.54888,14.33611 18.19057,16.98551 2.88103,2.88945 10.66343,8.71497 10.66343,13.84005 0,0.95846 -4.50098,1.74665 -9.40892,1.8873 -5.01604,0.14372 -10.04104,-0.22182 -15.05426,0 -23.23215,1.02792 -46.39909,3.26173 -69.625955,4.40364 -11.976556,0.58879 -25.073719,1.66769 -37.00839,-1.2582 -9.914527,-2.43063 -19.475657,-8.42368 -28.226747,-13.21094 -12.489233,-6.83224 -11.346597,-6.7697 -23.835905,-11.95276 -1.57639542,-0.65422 -8.1142353,-3.67293 -10.0361763,-2.51639 -1.3382162,0.80526 3.6785164,9.50391 4.3908204,10.69458 4.3264332,7.2318 6.3076859,10.03388 15.0542649,11.95277 4.130842,0.90625 8.324282,1.63327 12.545215,1.8873 6.261355,0.37676 12.545225,0 18.817827,0 10.454352,0 20.908702,0 31.363054,0 33.235822,0 66.603482,-1.27729 99.734462,1.88725 5.03437,0.48087 10.04035,1.22564 15.05427,1.8873 0.35809,0.0472 8.49258,-0.57984 10.03618,2.51635 0.003,0.007 -2.78594,-0.0141 -3.13631,0 -4.39229,0.17622 -8.78784,0.31501 -13.17249,0.62909 -16.10746,1.15391 -32.20911,2.39702 -48.29908,3.77458 -18.20111,1.5583 -36.380551,3.36153 -54.571687,5.03275 -9.199252,0.84513 -18.405064,1.61986 -27.599479,2.51636 -20.959263,2.04367 -11.192955,1.88729 -21.954134,1.88729 -0.265217,0 2.159751,0.14827 1.254524,-0.62909 -0.433239,-0.37205 -1.12523,-0.1878 -1.687851,-0.28171"
         id="path13615" />
      <g
         id="g14383"
         transform="matrix(0.22265908,0,0,0.22330953,-106.36883,360.31216)">
        <path
           id="circle13632"
           style="stroke-width:1.32292;stroke-linecap:round;stroke-linejoin:round"
           d="m 552.35637,164.83934 c -1.71164,2.49304 4.14983,6.08158 3.58097,9.37949 -0.62607,3.62961 -7.54575,5.40518 -7.1717,8.40602 0.88418,7.09338 3.49096,13.66623 6.49923,19.99652 3.17975,6.69111 19.03276,11.6914 12.04933,18.67483 -6.98343,6.98343 -13.85337,-5.71367 -20.16259,-9.68748 -10.1007,-6.36185 -16.03174,-5.39024 -22.70204,-4.6678 -3.00648,0.32562 -5.57166,5.16875 -8.60618,5.73977 -3.03452,0.57098 -6.1553,-2.13617 -9.17933,-2.14904 -9.29559,-0.0396 -13.0176,3.2041 -14.78641,14.28198 -1.31277,8.22176 -1.81428,21.60198 -17.74788,21.60198 -15.9336,0 -2.62515,-16.72702 0.016,-24.43025 2.64026,-7.70072 2.54312,-17.2668 0.20898,-24.83668 -1.61062,-5.22343 -10.40134,-5.95826 -13.07658,-10.98269 -2.83599,-5.32636 1.55587,-13.81826 -1.92111,-18.00073 -1.48025,-1.78059 -3.91001,-2.75082 -6.12546,-3.85722 -2.21546,-1.10639 -4.21662,-2.34894 -4.83966,-4.67415 -0.62304,-2.32521 2.83369,-3.86661 6.73913,-5.62851 3.90544,-1.7619 8.2596,-3.74431 9.43144,-6.95155 1.80456,-4.93898 3.73738,-10.83145 2.65675,-16.19371 -1.14039,-5.65881 -15.82579,-8.04752 -9.20385,-14.66946 6.62194,-6.62194 9.154,5.55558 13.85161,8.12025 6.22343,3.39769 13.98659,5.65924 17.01156,-1.57315 1.16687,-2.78987 5.99746,-0.54126 8.95136,-1.27187 2.9539,-0.7306 6.42129,-5.0386 10.28011,-5.49997 5.08594,-0.60809 9.869,4.92907 14.87629,3.85037 3.81749,-0.82238 0.39799,-11.03683 9.12684,-7.34484 8.72885,3.69199 -1.71071,5.6619 -0.63016,8.17078 2.00649,4.65881 7.09355,7.75415 11.82829,9.57424 12.38397,4.76054 24.06702,6.11908 39.7454,2.12941 15.67837,-3.98967 29.04266,-8.99173 30.19874,-6.25846 1.15608,2.73328 -10.66401,7.46227 -24.47546,13.98743 -13.81144,6.52517 -29.61425,14.84651 -36.42359,24.76449 z"
           sodipodi:nodetypes="sasasssssssssasssssassssaasaasssss" />
        <path
           id="path14366"
           style="stroke-width:1.32292;stroke-linecap:round;stroke-linejoin:round"
           d="m 526.59949,239.81935 c 1.05411,3.93398 3.70372,11.8717 -0.15313,12.90515 -3.85685,1.03345 -5.04688,-5.3585 -6.10099,-9.29248 -1.05411,-3.93399 -7.01286,-27.83592 -3.15601,-28.86936 3.85685,-1.03344 8.35602,21.3227 9.41013,25.25669 z"
           sodipodi:nodetypes="szscs" />
        <ellipse
           style="fill:#000000;fill-opacity:1;stroke:none;stroke-width:1.32292;stroke-linecap:round;stroke-linejoin:round;stroke-dasharray:none;stroke-opacity:1"
           id="path14368"
           cx="593.92932"
           cy="24.456491"
           rx="5.7838364"
           ry="5.0608568"
           transform="rotate(15)" />
        <path
           id="path14370"
           style="stroke-width:1.32292;stroke-linecap:round;stroke-linejoin:round"
           d="m 444.19284,159.08667 c 1e-5,3.03461 -5.68359,5.49465 -9.11749,5.49465 -3.4339,0 -6.21762,-2.46004 -6.21762,-5.49465 0,-3.03461 2.78372,-5.49464 6.21762,-5.49464 3.4339,0 9.11749,2.46003 9.11749,5.49464 z"
           sodipodi:nodetypes="sssss" />
        <path
           id="path14372"
           style="stroke-width:1.30388;stroke-linecap:round;stroke-linejoin:round"
           d="m 635.95883,125.04365 c -1.84148,0.61387 -13.1713,1.11044 -17.19619,-1.30603 -3.18516,-1.91231 4.99144,-5.31 8.06175,-7.47794 3.70392,-2.61533 9.84134,-2.63375 10.89645,0.70579 1.33659,4.23048 2.53947,6.64423 -1.76201,8.07818 z"
           sodipodi:nodetypes="sssss" />
      </g>
      <g
         id="g14395"
         transform="matrix(-0.0576284,-0.21570044,0.21507215,-0.05779675,110.2502,561.2426)">
        <path
           id="path14385"
           style="stroke-width:1.32292;stroke-linecap:round;stroke-linejoin:round"
           d="m 552.35637,164.83934 c -1.71164,2.49304 4.14983,6.08158 3.58097,9.37949 -0.62607,3.62961 -7.54575,5.40518 -7.1717,8.40602 0.88418,7.09338 3.49096,13.66623 6.49923,19.99652 3.17975,6.69111 19.03276,11.6914 12.04933,18.67483 -6.98343,6.98343 -13.85337,-5.71367 -20.16259,-9.68748 -10.1007,-6.36185 -16.03174,-5.39024 -22.70204,-4.6678 -3.00648,0.32562 -5.57166,5.16875 -8.60618,5.73977 -3.03452,0.57098 -6.1553,-2.13617 -9.17933,-2.14904 -9.29559,-0.0396 -13.0176,3.2041 -14.78641,14.28198 -1.31277,8.22176 -1.81428,21.60198 -17.74788,21.60198 -15.9336,0 -2.62515,-16.72702 0.016,-24.43025 2.64026,-7.70072 2.54312,-17.2668 0.20898,-24.83668 -1.61062,-5.22343 -10.40134,-5.95826 -13.07658,-10.98269 -2.83599,-5.32636 1.55587,-13.81826 -1.92111,-18.00073 -1.48025,-1.78059 -3.91001,-2.75082 -6.12546,-3.85722 -2.21546,-1.10639 -4.21662,-2.34894 -4.83966,-4.67415 -0.62304,-2.32521 2.83369,-3.86661 6.73913,-5.62851 3.90544,-1.7619 8.2596,-3.74431 9.43144,-6.95155 1.80456,-4.93898 3.73738,-10.83145 2.65675,-16.19371 -1.14039,-5.65881 -15.82579,-8.04752 -9.20385,-14.66946 6.62194,-6.62194 9.154,5.55558 13.85161,8.12025 6.22343,3.39769 13.98659,5.65924 17.01156,-1.57315 1.16687,-2.78987 5.99746,-0.54126 8.95136,-1.27187 2.9539,-0.7306 6.42129,-5.0386 10.28011,-5.49997 5.08594,-0.60809 9.869,4.92907 14.87629,3.85037 3.81749,-0.82238 0.39799,-11.03683 9.12684,-7.34484 8.72885,3.69199 -1.71071,5.6619 -0.63016,8.17078 2.00649,4.65881 7.09355,7.75415 11.82829,9.57424 12.38397,4.76054 24.06702,6.11908 39.7454,2.12941 15.67837,-3.98967 29.04266,-8.99173 30.19874,-6.25846 1.15608,2.73328 -10.66401,7.46227 -24.47546,13.98743 -13.81144,6.52517 -29.61425,14.84651 -36.42359,24.76449 z"
           sodipodi:nodetypes="sasasssssssssasssssassssaasaasssss" />
        <path
           id="path14387"
           style="stroke-width:1.32292;stroke-linecap:round;stroke-linejoin:round"
           d="m 526.59949,239.81935 c 1.05411,3.93398 3.70372,11.8717 -0.15313,12.90515 -3.85685,1.03345 -5.04688,-5.3585 -6.10099,-9.29248 -1.05411,-3.93399 -7.01286,-27.83592 -3.15601,-28.86936 3.85685,-1.03344 8.35602,21.3227 9.41013,25.25669 z"
           sodipodi:nodetypes="szscs" />
        <ellipse
           style="fill:#000000;fill-opacity:1;stroke:none;stroke-width:1.32292;stroke-linecap:round;stroke-linejoin:round;stroke-dasharray:none;stroke-opacity:1"
           id="ellipse14389"
           cx="593.92932"
           cy="24.456491"
           rx="5.7838364"
           ry="5.0608568"
           transform="rotate(15)" />
        <path
           id="path14391"
           style="stroke-width:1.32292;stroke-linecap:round;stroke-linejoin:round"
           d="m 444.19284,159.08667 c 1e-5,3.03461 -5.68359,5.49465 -9.11749,5.49465 -3.4339,0 -6.21762,-2.46004 -6.21762,-5.49465 0,-3.03461 2.78372,-5.49464 6.21762,-5.49464 3.4339,0 9.11749,2.46003 9.11749,5.49464 z"
           sodipodi:nodetypes="sssss" />
        <path
           id="path14393"
           style="stroke-width:1.30388;stroke-linecap:round;stroke-linejoin:round"
           d="m 635.95883,125.04365 c -1.84148,0.61387 -13.1713,1.11044 -17.19619,-1.30603 -3.18516,-1.91231 4.99144,-5.31 8.06175,-7.47794 3.70392,-2.61533 9.84134,-2.63375 10.89645,0.70579 1.33659,4.23048 2.53947,6.64423 -1.76201,8.07818 z"
           sodipodi:nodetypes="sssss" />
      </g>
    </g>
    <g
       id="g408"
       inkscape:export-filename="..\VerticalFlappyCube(UnityProject)\Assets\0005Textures\char5.png"
       inkscape:export-xdpi="119.88314"
       inkscape:export-ydpi="119.88314">
      <g
         id="g14407"
         transform="matrix(0.08063244,0.2640678,-0.30180346,0.07096346,299.39304,212.54683)"
         style="fill:#ff0000">
        <path
           id="path14397"
           style="fill:#ff0000;stroke-width:1.32292;stroke-linecap:round;stroke-linejoin:round"
           d="m 552.35637,164.83934 c -1.71164,2.49304 4.14983,6.08158 3.58097,9.37949 -0.62607,3.62961 -7.54575,5.40518 -7.1717,8.40602 0.88418,7.09338 3.49096,13.66623 6.49923,19.99652 3.17975,6.69111 19.03276,11.6914 12.04933,18.67483 -6.98343,6.98343 -13.85337,-5.71367 -20.16259,-9.68748 -10.1007,-6.36185 -16.03174,-5.39024 -22.70204,-4.6678 -3.00648,0.32562 -5.57166,5.16875 -8.60618,5.73977 -3.03452,0.57098 -6.1553,-2.13617 -9.17933,-2.14904 -9.29559,-0.0396 -13.0176,3.2041 -14.78641,14.28198 -1.31277,8.22176 -1.81428,21.60198 -17.74788,21.60198 -15.9336,0 -2.62515,-16.72702 0.016,-24.43025 2.64026,-7.70072 2.54312,-17.2668 0.20898,-24.83668 -1.61062,-5.22343 -10.40134,-5.95826 -13.07658,-10.98269 -2.83599,-5.32636 1.55587,-13.81826 -1.92111,-18.00073 -1.48025,-1.78059 -3.91001,-2.75082 -6.12546,-3.85722 -2.21546,-1.10639 -4.21662,-2.34894 -4.83966,-4.67415 -0.62304,-2.32521 2.83369,-3.86661 6.73913,-5.62851 3.90544,-1.7619 8.2596,-3.74431 9.43144,-6.95155 1.80456,-4.93898 3.73738,-10.83145 2.65675,-16.19371 -1.14039,-5.65881 -15.82579,-8.04752 -9.20385,-14.66946 6.62194,-6.62194 9.154,5.55558 13.85161,8.12025 6.22343,3.39769 13.98659,5.65924 17.01156,-1.57315 1.16687,-2.78987 5.99746,-0.54126 8.95136,-1.27187 2.9539,-0.7306 6.42129,-5.0386 10.28011,-5.49997 5.08594,-0.60809 9.869,4.92907 14.87629,3.85037 3.81749,-0.82238 0.39799,-11.03683 9.12684,-7.34484 8.72885,3.69199 -1.71071,5.6619 -0.63016,8.17078 2.00649,4.65881 7.09355,7.75415 11.82829,9.57424 12.38397,4.76054 24.06702,6.11908 39.7454,2.12941 15.67837,-3.98967 29.04266,-8.99173 30.19874,-6.25846 1.15608,2.73328 -10.66401,7.46227 -24.47546,13.98743 -13.81144,6.52517 -29.61425,14.84651 -36.42359,24.76449 z"
           sodipodi:nodetypes="sasasssssssssasssssassssaasaasssss" />
        <path
           id="path14399"
           style="fill:#ff0000;stroke-width:1.32292;stroke-linecap:round;stroke-linejoin:round"
           d="m 526.59949,239.81935 c 1.05411,3.93398 3.70372,11.8717 -0.15313,12.90515 -3.85685,1.03345 -5.04688,-5.3585 -6.10099,-9.29248 -1.05411,-3.93399 -7.01286,-27.83592 -3.15601,-28.86936 3.85685,-1.03344 8.35602,21.3227 9.41013,25.25669 z"
           sodipodi:nodetypes="szscs" />
        <ellipse
           style="fill:#ff0000;fill-opacity:1;stroke:none;stroke-width:1.32292;stroke-linecap:round;stroke-linejoin:round;stroke-dasharray:none;stroke-opacity:1"
           id="ellipse14401"
           cx="593.92932"
           cy="24.456491"
           rx="5.7838364"
           ry="5.0608568"
           transform="rotate(15)" />
        <path
           id="path14403"
           style="fill:#ff0000;stroke-width:1.32292;stroke-linecap:round;stroke-linejoin:round"
           d="m 444.19284,159.08667 c 1e-5,3.03461 -5.68359,5.49465 -9.11749,5.49465 -3.4339,0 -6.21762,-2.46004 -6.21762,-5.49465 0,-3.03461 2.78372,-5.49464 6.21762,-5.49464 3.4339,0 9.11749,2.46003 9.11749,5.49464 z"
           sodipodi:nodetypes="sssss" />
        <path
           id="path14405"
           style="fill:#ff0000;stroke-width:1.30388;stroke-linecap:round;stroke-linejoin:round"
           d="m 635.95883,125.04365 c -1.84148,0.61387 -13.1713,1.11044 -17.19619,-1.30603 -3.18516,-1.91231 4.99144,-5.31 8.06175,-7.47794 3.70392,-2.61533 9.84134,-2.63375 10.89645,0.70579 1.33659,4.23048 2.53947,6.64423 -1.76201,8.07818 z"
           sodipodi:nodetypes="sssss" />
      </g>
      <path
         style="fill:#ff0000;fill-opacity:1;stroke:none;stroke-width:1.33732;stroke-linecap:round;stroke-linejoin:round;stroke-dasharray:none;stroke-opacity:1"
         id="path14429"
         d="m 278.96518,337.03764 c 0.0591,5.15782 0.0583,10.31635 0.0644,15.47455 -0.005,4.07562 0.0298,8.17869 -0.43704,12.22969 -0.23815,2.06621 -0.44487,2.84256 -0.86234,4.87191 -0.89876,4.11184 -2.81405,7.7005 -4.95252,11.10873 -1.01469,1.45311 -1.78924,3.22408 -3.30542,4.06989 -0.90623,0.35295 -1.8031,0.0606 -2.63279,-0.41128 -0.23619,-0.13434 -0.9197,-0.59066 -0.68556,-0.45171 0.85259,0.50601 1.69427,1.0354 2.54139,1.55309 -1.14868,-1.05167 -2.00424,-2.53226 -2.00484,-4.26607 -1.5e-4,-0.41778 0.078,-0.83085 0.11702,-1.24627 0.13251,-0.45647 0.22015,-0.93306 0.39751,-1.36944 1.26624,-3.11551 4.06384,-5.38718 6.47698,-7.24265 3.66695,-2.53999 7.79333,-3.52218 11.99828,-4.06537 3.74314,-0.37665 7.40972,-0.9289 10.96687,-2.34014 2.21166,-1.1639 4.19799,-2.92805 4.84003,-5.72759 0.12032,-0.5246 0.1488,-1.07101 0.22321,-1.60649 0.0175,-1.69918 0.041,-4.68741 -1.43135,-5.77393 -1.2828,-0.94658 -2.6414,-1.7533 -3.96209,-2.62993 -2.85261,-0.66005 -5.02151,1.61365 -6.93628,3.6991 -2.8645,3.38956 -4.49917,7.76338 -6.46546,11.82933 -1.59705,3.35498 -3.45875,6.58333 -6.05545,9.05382 -0.42872,0.4079 -0.89285,0.76514 -1.33929,1.1477 -1.8163,1.31936 -3.90545,2.94563 -6.18764,2.64341 -0.43559,-0.0577 -0.85334,-0.23044 -1.27999,-0.34566 -0.44689,-0.22789 -1.72462,-1.02942 -1.34066,-0.68374 0.5611,0.50518 1.19091,0.96652 1.88338,1.17239 0.44495,0.13229 -0.76311,-0.58978 -1.10408,-0.94069 -0.41081,-0.42276 -1.03655,-1.15672 -1.03456,-1.89462 0,-0.31345 0.18531,-0.59045 0.27798,-0.88567 0.29662,-0.29107 0.56049,-0.6319 0.88986,-0.87319 2.97481,-2.17914 7.00163,-2.44657 10.41868,-2.62961 3.87069,0.0437 7.71689,0.97544 11.26057,2.76153 0.62559,0.31534 1.22141,0.70206 1.83213,1.05306 -0.39778,-0.23027 -1.51916,-1.03783 -1.1934,-0.69086 0.56813,0.605 1.30077,0.97321 1.93712,1.48295 0.6369,0.51017 1.26689,1.03222 1.88189,1.57603 1.67774,1.48355 3.29059,3.0797 4.9217,4.62893 1.94473,1.84589 3.81118,3.85831 6.02284,5.30058 1.39346,0.90868 2.80673,1.77742 4.21012,2.66613 2.32927,1.09101 4.09448,0.8035 6.24679,-0.54504 0.27753,-0.21481 0.55504,-0.42963 0.83257,-0.64443 0,0 -3.14115,-2.28486 -3.14115,-2.28486 v 0 c -0.27041,0.2031 -0.5408,0.40617 -0.81121,0.60923 -2.12442,1.24402 -3.81089,1.36387 -6.03169,0.22476 0.71906,0.50134 1.43424,1.00997 2.15718,1.50404 0.34752,0.23748 -0.69028,-0.48387 -1.03073,-0.73421 -1.80846,-1.32994 -3.43243,-2.93326 -5.05613,-4.5363 -4.35146,-4.13024 -8.66818,-8.28475 -13.80572,-11.15519 -0.61792,-0.34018 -1.22233,-0.71412 -1.8538,-1.02056 -3.57906,-1.73684 -7.44293,-2.61356 -11.32995,-2.60662 -3.40675,0.21638 -7.69854,0.55485 -10.62117,2.81502 -0.37289,0.28837 -0.66574,0.69176 -0.9986,1.03761 -0.12944,0.37482 -0.35849,0.72325 -0.38832,1.12448 -0.0996,1.34034 1.2078,2.5393 2.06317,3.1442 3.99104,2.82225 3.12915,2.34444 5.85926,3.57041 0.44598,0.0893 0.88589,0.23718 1.33792,0.26819 2.3376,0.16042 4.43696,-1.49692 6.29084,-2.87577 0.45128,-0.39532 0.92057,-0.76544 1.35387,-1.18598 2.60237,-2.52575 4.47259,-5.79472 6.08622,-9.18678 1.95398,-4.024 3.59159,-8.35194 6.43842,-11.698 1.84009,-1.96023 4.00901,-4.21562 6.71029,-3.22915 -0.80046,-0.55022 -1.57122,-1.16069 -2.40144,-1.65072 -0.25369,-0.14974 0.4747,0.37514 0.65981,0.62275 0.9626,1.28761 0.93367,3.22856 0.95337,4.79883 -0.064,0.50929 -0.0835,1.02834 -0.19181,1.52784 -0.58382,2.69312 -2.52898,4.34301 -4.64784,5.42531 -3.52653,1.35987 -7.20404,1.89393 -10.90307,2.28148 -4.24531,0.58619 -8.40403,1.63661 -12.0901,4.23551 -2.92532,2.26862 -5.99747,4.87246 -7.08917,8.88299 -0.0537,0.4414 -0.14586,0.87894 -0.16103,1.3242 -0.061,1.79157 0.70368,3.42909 1.86829,4.57886 1.28235,0.8963 2.55448,1.81175 3.84703,2.68887 1.07652,0.73054 2.35681,1.10178 3.5495,0.53477 1.50483,-0.98471 2.32824,-2.73338 3.34677,-4.27284 2.13515,-3.47381 4.06365,-7.11616 4.97951,-11.27529 0.43823,-2.09945 0.63333,-2.787 0.87502,-4.92821 0.4593,-4.06898 0.41073,-8.18972 0.4231,-12.2819 0.006,-5.13333 0.005,-10.267 0.0644,-15.39998 0,0 -3.3415,-1.93543 -3.3415,-1.93543 z" />
      <path
         style="fill:none;fill-opacity:1;stroke:#ff0000;stroke-width:0.921695;stroke-linecap:round;stroke-linejoin:round;stroke-dasharray:none;stroke-opacity:1"
         d="m 302.29764,344.02443 c -0.9195,6.67186 -0.27571,13.38937 -0.44,20.07916 -0.12257,4.99036 -0.52045,12.5557 -1.32003,17.60788 -0.29557,1.86754 -1.00113,3.69475 -1.32002,5.56039 -0.12232,0.71565 0.72597,1.65269 0,2.16237 -0.5585,0.3921 -0.64591,-1.01496 -0.88002,-1.54455 -1.08681,-2.45858 -1.95799,-4.96309 -3.08005,-7.41385 -1.51871,-3.31714 -3.20963,-6.59423 -4.84008,-9.88512 -5.26266,-10.62222 -5.40131,-11.08548 -11.00018,-21.0059 -0.91456,-1.62045 -6.61321,-9.23971 -5.28009,-12.0475 0.0464,-0.0977 0.29447,-0.0129 0.44,0 1.0291,0.0903 2.14278,-0.003 3.08006,0.30892 2.37936,0.79125 10.99512,5.49416 12.32021,6.1782 19.0537,9.83587 -2.94524,-1.73906 15.40025,8.03166 7.69578,4.09873 3.00334,1.14881 8.36015,5.25148 0.56063,0.42938 1.55879,0.67055 1.76002,1.23564 0.10672,0.29968 -0.88778,0.0578 -1.32002,0 -2.65668,-0.35526 -5.2327,-1.02305 -7.92014,-1.23564 -16.87252,-1.33471 -21.06103,-2.29096 -35.20058,0.30891 -5.67836,1.04408 -5.15344,0.83781 -7.48013,2.47128"
         id="path14439" />
    </g>
    <g
       id="g14657"
       inkscape:export-filename="..\VerticalFlappyCube(UnityProject)\Assets\0005Textures\obs7.png"
       inkscape:export-xdpi="81.919998"
       inkscape:export-ydpi="81.919998"
       transform="translate(0.52916667,-0.26458333)">
      <g
         id="g14622">
        <path
           style="fill:#000000;fill-opacity:1;stroke:none;stroke-width:1.32292;stroke-linecap:round;stroke-linejoin:round;stroke-dasharray:none;stroke-opacity:1"
           d="m 207.77233,599.661 26.45834,-26.45831 V 599.661 Z"
           id="path14586" />
        <path
           style="fill:#000000;fill-opacity:1;stroke:none;stroke-width:1.32292;stroke-linecap:round;stroke-linejoin:round;stroke-dasharray:none;stroke-opacity:1"
           d="m 181.314,599.661 52.91667,-52.91664 V 520.286 l -79.375,79.375 z"
           id="path14588" />
        <path
           style="fill:#000000;fill-opacity:1;stroke:none;stroke-width:1.32292;stroke-linecap:round;stroke-linejoin:round;stroke-dasharray:none;stroke-opacity:1"
           d="m 128.39733,599.661 79.375,-79.375 H 181.314 l -79.37501,79.375 z"
           id="path14590" />
        <path
           style="fill:#000000;fill-opacity:1;stroke:none;stroke-width:1.32292;stroke-linecap:round;stroke-linejoin:round;stroke-dasharray:none;stroke-opacity:1"
           d="M 75.480668,599.661 154.85567,520.286 H 128.39733 L 49.022335,599.661 Z"
           id="path14592" />
        <path
           style="fill:#000000;fill-opacity:1;stroke:none;stroke-width:1.32292;stroke-linecap:round;stroke-linejoin:round;stroke-dasharray:none;stroke-opacity:1"
           d="M 22.563999,599.661 101.93899,520.286 H 75.480668 l -79.3750028,79.375 z"
           id="path14594" />
        <path
           style="fill:#000000;fill-opacity:1;stroke:none;stroke-width:1.32292;stroke-linecap:round;stroke-linejoin:round;stroke-dasharray:none;stroke-opacity:1"
           d="M -3.8943348,573.20269 49.022335,520.286 H 22.563999 l -26.4583338,26.45836 z"
           id="path14596" />
        <path
           style="opacity:0.5;fill:#000000;fill-opacity:1;stroke:none;stroke-width:1.32292;stroke-linecap:round;stroke-linejoin:round;stroke-dasharray:none;stroke-opacity:1"
           d="m 181.314,599.661 h 26.45833 l 26.45834,-26.45831 v -26.45833 z"
           id="path14598" />
        <path
           style="opacity:0.5;fill:#000000;fill-opacity:1;stroke:none;stroke-width:1.32292;stroke-linecap:round;stroke-linejoin:round;stroke-dasharray:none;stroke-opacity:1"
           d="m 154.85567,599.661 h -26.45834 l 79.375,-79.375 h 26.45834 z"
           id="path14600" />
        <path
           style="opacity:0.5;fill:#000000;fill-opacity:1;stroke:none;stroke-width:1.32292;stroke-linecap:round;stroke-linejoin:round;stroke-dasharray:none;stroke-opacity:1"
           d="M 101.93899,599.661 H 75.480666 L 154.85567,520.286 H 181.314 Z"
           id="path14602" />
        <path
           style="opacity:0.5;fill:#000000;fill-opacity:1;stroke:none;stroke-width:1.32292;stroke-linecap:round;stroke-linejoin:round;stroke-dasharray:none;stroke-opacity:1"
           d="M 49.022335,599.661 H 22.563999 l 79.374991,-79.375 h 26.45834 z"
           id="path14604" />
        <path
           style="opacity:0.5;fill:#000000;fill-opacity:1;stroke:none;stroke-width:1.32292;stroke-linecap:round;stroke-linejoin:round;stroke-dasharray:none;stroke-opacity:1"
           d="M -3.8943348,599.661 V 573.20269 L 49.022335,520.286 h 26.458331 z"
           id="path14606" />
        <path
           style="opacity:0.5;fill:#000000;fill-opacity:1;stroke:none;stroke-width:1.32292;stroke-linecap:round;stroke-linejoin:round;stroke-dasharray:none;stroke-opacity:1"
           d="M -3.8943409,546.74436 22.563999,520.286 H -3.8943409 Z"
           id="path14608" />
      </g>
    </g>
    <g
       id="g14642"
       inkscape:export-filename="..\VerticalFlappyCube(UnityProject)\Assets\0005Textures\char7.png"
       inkscape:export-xdpi="122.88007"
       inkscape:export-ydpi="122.88007"
       style="fill:#ff0000">
      <path
         style="opacity:0.5;fill:#ff0000;fill-opacity:1;stroke:none;stroke-width:1.32292;stroke-linecap:round;stroke-linejoin:round;stroke-dasharray:none;stroke-opacity:1"
         d="m 306.45798,585.42681 17.63887,-17.63884 v -17.63893 l -35.27777,35.27777 z"
         id="path14624"
         inkscape:export-filename="..\VerticalFlappyCube(UnityProject)\Assets\0005Textures\char7.png"
         inkscape:export-xdpi="122.88"
         inkscape:export-ydpi="122.88" />
      <path
         style="opacity:0.5;fill:#ff0000;fill-opacity:1;stroke:none;stroke-width:1.32292;stroke-linecap:round;stroke-linejoin:round;stroke-dasharray:none;stroke-opacity:1"
         d="m 271.18021,585.42681 52.91664,-52.91664 h -17.63887 l -35.27777,35.2778 z"
         id="path14626" />
      <path
         style="opacity:0.5;fill:#ff0000;fill-opacity:1;stroke:none;stroke-width:1.32292;stroke-linecap:round;stroke-linejoin:round;stroke-dasharray:none;stroke-opacity:1"
         d="m 271.18021,550.14904 17.63887,-17.63887 h -17.63887 z"
         id="path14628" />
      <path
         style="opacity:1;fill:#ff0000;fill-opacity:1;stroke:none;stroke-width:1.32292;stroke-linecap:round;stroke-linejoin:round;stroke-dasharray:none;stroke-opacity:1"
         d="m 306.45798,585.42681 17.63887,-17.63884 v 17.63884 z"
         id="path14630" />
      <path
         style="opacity:1;fill:#ff0000;fill-opacity:1;stroke:none;stroke-width:1.32292;stroke-linecap:round;stroke-linejoin:round;stroke-dasharray:none;stroke-opacity:1"
         d="m 271.18021,585.42681 h 17.63887 l 35.27777,-35.27777 v -17.63887 z"
         id="path14632" />
      <path
         style="opacity:1;fill:#ff0000;fill-opacity:1;stroke:none;stroke-width:1.32292;stroke-linecap:round;stroke-linejoin:round;stroke-dasharray:none;stroke-opacity:1"
         d="m 271.18021,567.78797 35.27777,-35.2778 h -17.6389 l -17.63887,17.63887 z"
         id="path14634" />
    </g>
    <rect
       style="opacity:1;fill:none;stroke:#000000;stroke-width:3.84016;stroke-linecap:round;stroke-linejoin:bevel;stroke-dasharray:3.84016, 11.5205;stroke-dashoffset:7.68033;stroke-opacity:1"
       id="rect14686"
       width="234.28484"
       height="75.532928"
       x="-6.4444432"
       y="707.6496"
       rx="4.9193673"
       ry="4.7579799"
       inkscape:export-filename="..\VerticalFlappyCube(UnityProject)\Assets\0005Textures\obs9.png"
       inkscape:export-xdpi="81.919998"
       inkscape:export-ydpi="81.919998" />
    <rect
       style="opacity:1;fill:none;stroke:#ff0000;stroke-width:2.64583333;stroke-linecap:round;stroke-linejoin:bevel;stroke-dasharray:2.64583325, 7.93749976;stroke-dashoffset:6.08541648;stroke-opacity:1"
       id="rect14688"
       width="51.42701"
       height="51.433422"
       x="259.87152"
       y="721.28851"
       rx="1.0798323"
       ry="3.2399008"
       inkscape:export-filename="..\VerticalFlappyCube(UnityProject)\Assets\0005Textures\char9.png"
       inkscape:export-xdpi="120.1858"
       inkscape:export-ydpi="120.1858" />
    <g
       id="g14825"
       inkscape:export-filename="..\VerticalFlappyCube(UnityProject)\Assets\0005Textures\locked.png"
       inkscape:export-xdpi="122.88"
       inkscape:export-ydpi="122.88">
      <rect
         style="fill:#4d4d4d;stroke:none;stroke-width:1.64232;stroke-linecap:round;stroke-linejoin:bevel;stroke-dasharray:none;stroke-opacity:1"
         id="rect14690"
         width="52.916668"
         height="52.916668"
         x="402.29489"
         y="156.28551"
         inkscape:export-filename="..\VerticalFlappyCube(UnityProject)\Assets\0005Textures\char1.png"
         inkscape:export-xdpi="122.88"
         inkscape:export-ydpi="122.88"
         rx="5"
         ry="5" />
      <g
         id="g14817">
        <rect
           style="opacity:1;fill:#ffffff;fill-opacity:1;stroke:none;stroke-width:2.97493;stroke-linecap:round;stroke-linejoin:round;stroke-dasharray:2.97493, 8.92482;stroke-dashoffset:6.84237;stroke-opacity:1"
           id="rect14744"
           width="36.2952"
           height="19.083046"
           x="410.60562"
           y="185.59195" />
        <path
           id="path14798"
           style="opacity:1;fill:#ffffff;fill-opacity:1;stroke:none;stroke-width:1.31753;stroke-linecap:round;stroke-linejoin:round;stroke-dasharray:1.31753, 3.9526;stroke-dashoffset:3.03032;stroke-opacity:1"
           d="M 414.72142,52.916667 A 13.22916,13.22929 0 0 0 401.49238,66.145834 13.22916,13.22929 0 0 0 414.72142,79.375 13.22916,13.22929 0 0 0 427.95071,66.145834 13.22916,13.22929 0 0 0 414.72142,52.916667 Z m 0,2.794878 a 10.434268,10.434371 0 0 1 10.43444,10.434289 10.434268,10.434371 0 0 1 -10.43444,10.434288 10.434268,10.434371 0 0 1 -10.43419,-10.434288 10.434268,10.434371 0 0 1 10.43419,-10.434289 z"
           clip-path="url(#clipPath14805)"
           transform="matrix(-1.1555635,0,0,-1.1555635,907.9903,252.53555)" />
        <path
           style="opacity:1;fill:#ffffff;fill-opacity:1;stroke:none;stroke-width:2.64583;stroke-linecap:round;stroke-linejoin:round;stroke-dasharray:2.64583, 7.9375;stroke-dashoffset:6.08542;stroke-opacity:1"
           d="m 413.46606,176.09984 v 11.92427 l 3.22994,-0.18709 v -11.73718 z"
           id="path14809"
           sodipodi:nodetypes="ccccc" />
        <path
           style="opacity:1;fill:#ffffff;fill-opacity:1;stroke:none;stroke-width:2.64583;stroke-linecap:round;stroke-linejoin:round;stroke-dasharray:2.64583, 7.9375;stroke-dashoffset:6.08542;stroke-opacity:1"
           d="m 440.81042,176.09984 v 11.92427 l 3.22994,-0.18709 v -11.73718 z"
           id="path14811"
           sodipodi:nodetypes="ccccc" />
      </g>
    </g>
    <rect
       style="fill:#ffffff;stroke-width:2.21874;stroke-linecap:round;stroke-linejoin:round;stroke-dasharray:2.21874, 6.65622;stroke-dashoffset:5.10311"
       id="rect374-9"
       width="37.5"
       height="50"
       x="719.7774"
       y="190.22185" />
    <path
       id="path3413"
       style="fill:#ffffff;fill-opacity:1;stroke:#000000;stroke-width:2.64583;stroke-linecap:round;stroke-linejoin:round;stroke-dasharray:none;stroke-dashoffset:23;stroke-opacity:1"
       d="m 861.73026,119.73651 a 64.732681,64.732681 0 0 0 -64.73248,64.733 h 129.46548 a 64.732681,64.732681 0 0 0 -64.733,-64.733 z" />
    <g
       id="g3432"
       style="stroke:#ffffff"
       transform="matrix(0.93722421,0,0,0.96182859,26.037581,13.216144)"
       inkscape:export-filename="..\VerticalFlappyCube(UnityProject)\Assets\0005Textures\shop.png"
       inkscape:export-xdpi="32.512009"
       inkscape:export-ydpi="32.512009">
      <rect
         style="fill:none;stroke:#ffffff;stroke-width:7.9375;stroke-linecap:round;stroke-linejoin:round;stroke-dasharray:none;stroke-dashoffset:19.0941;stroke-opacity:1"
         id="rect374"
         width="175"
         height="150"
         x="434.31296"
         y="401.41348" />
      <rect
         style="fill:none;stroke:#ffffff;stroke-width:7.9375;stroke-linecap:round;stroke-linejoin:round;stroke-dasharray:none;stroke-dashoffset:8.33335;stroke-opacity:1"
         id="rect603"
         width="50"
         height="100"
         x="496.81299"
         y="451.41345" />
      <path
         style="fill:none;stroke:#ffffff;stroke-width:7.9375;stroke-linecap:round;stroke-linejoin:round;stroke-dasharray:none;stroke-dashoffset:6.08542;stroke-opacity:1"
         d="m 418.00839,401.41349 25,-50.00001 h 37.49998 l -12.49997,50.00001 z"
         id="path661" />
      <path
         style="fill:none;stroke:#ffffff;stroke-width:7.9375;stroke-linecap:round;stroke-linejoin:round;stroke-dasharray:none;stroke-dashoffset:6.08542;stroke-opacity:1"
         d="m 482.16282,351.41348 -12.49997,50.00001 h 49.99998 v -50.00001 z"
         id="path663" />
      <path
         style="fill:none;stroke:#ffffff;stroke-width:7.9375;stroke-linecap:round;stroke-linejoin:round;stroke-dasharray:none;stroke-dashoffset:6.08542;stroke-opacity:1"
         d="m 521.81296,351.41348 v 50.00001 h 50 l -12.49997,-50.00001 z"
         id="path665" />
      <path
         style="fill:none;stroke:#ffffff;stroke-width:7.9375;stroke-linecap:round;stroke-linejoin:round;stroke-dasharray:none;stroke-dashoffset:6.08542;stroke-opacity:1"
         d="m 623.46739,401.41349 -24.99998,-50.00001 h -37.5 l 12.49997,50.00001 z"
         id="path667" />
      <path
         id="path1223"
         style="fill:none;fill-opacity:1;stroke:#ffffff;stroke-width:7.9375;stroke-linecap:round;stroke-linejoin:round;stroke-dasharray:none;stroke-dashoffset:23;stroke-opacity:1"
         d="m 468.0084,401.41349 h -49.0086 a 24.504282,24.008688 0 0 0 24.5042,24.00861 24.504282,24.008688 0 0 0 24.5044,-24.00861 z" />
      <path
         id="path3416"
         style="fill:none;fill-opacity:1;stroke:#ffffff;stroke-width:7.9375;stroke-linecap:round;stroke-linejoin:round;stroke-dasharray:none;stroke-dashoffset:23;stroke-opacity:1"
         d="m 519.66283,401.41349 h -49.0086 a 24.504282,24.008688 0 0 0 24.5042,24.00861 24.504282,24.008688 0 0 0 24.5044,-24.00861 z" />
      <path
         id="path3418"
         style="fill:none;fill-opacity:1;stroke:#ffffff;stroke-width:7.9375;stroke-linecap:round;stroke-linejoin:round;stroke-dasharray:none;stroke-dashoffset:23;stroke-opacity:1"
         d="m 571.31726,401.41349 h -49.0086 a 24.504282,24.008688 0 0 0 24.5042,24.00861 24.504282,24.008688 0 0 0 24.5044,-24.00861 z" />
      <path
         id="path3420"
         style="fill:none;fill-opacity:1;stroke:#ffffff;stroke-width:7.9375;stroke-linecap:round;stroke-linejoin:round;stroke-dasharray:none;stroke-dashoffset:23;stroke-opacity:1"
         d="m 622.97169,401.41349 h -49.0086 a 24.504282,24.008688 0 0 0 24.5042,24.00861 24.504282,24.008688 0 0 0 24.5044,-24.00861 z" />
    </g>
    <g
       id="g4338"
       style="stroke-width:7.9375;stroke-dasharray:none"
       inkscape:export-filename="..\VerticalFlappyCube(UnityProject)\Assets\0005Textures\coin.png"
       inkscape:export-xdpi="64.074509"
       inkscape:export-ydpi="64.074509">
      <circle
         style="fill:none;fill-opacity:1;stroke:#ffffff;stroke-width:7.9375;stroke-linecap:round;stroke-linejoin:round;stroke-dasharray:none;stroke-dashoffset:31.4961;stroke-opacity:1"
         id="path4332"
         cx="559.76929"
         cy="99.15699"
         r="46.772167" />
      <rect
         style="fill:none;fill-opacity:1;stroke:#ffffff;stroke-width:7.9375;stroke-linecap:round;stroke-linejoin:round;stroke-dasharray:none;stroke-dashoffset:31.4961;stroke-opacity:1"
         id="rect4334"
         width="20.953932"
         height="36.669376"
         x="549.2923"
         y="80.822304" />
    </g>
  </g>
</svg>
