<?xml version="1.0" encoding="UTF-8" standalone="no"?>
<!-- Created with Inkscape (http://www.inkscape.org/) -->

<svg
   width="210mm"
   height="297mm"
   viewBox="0 0 210 297"
   version="1.1"
   id="svg5"
   inkscape:version="1.2.1 (9c6d41e410, 2022-07-14)"
   sodipodi:docname="vibrationButton.svg"
   xml:space="preserve"
   xmlns:inkscape="http://www.inkscape.org/namespaces/inkscape"
   xmlns:sodipodi="http://sodipodi.sourceforge.net/DTD/sodipodi-0.dtd"
   xmlns="http://www.w3.org/2000/svg"
   xmlns:svg="http://www.w3.org/2000/svg"><sodipodi:namedview
     id="namedview7"
     pagecolor="#ffffff"
     bordercolor="#000000"
     borderopacity="0.25"
     inkscape:showpageshadow="2"
     inkscape:pageopacity="0.0"
     inkscape:pagecheckerboard="0"
     inkscape:deskcolor="#d1d1d1"
     inkscape:document-units="mm"
     showgrid="false"
     inkscape:zoom="0.914906"
     inkscape:cx="634.49141"
     inkscape:cy="620.8288"
     inkscape:window-width="2560"
     inkscape:window-height="1387"
     inkscape:window-x="-8"
     inkscape:window-y="22"
     inkscape:window-maximized="1"
     inkscape:current-layer="layer1" /><defs
     id="defs2" /><g
     inkscape:label="Warstwa 1"
     inkscape:groupmode="layer"
     id="layer1"><g
       id="g4853"
       inkscape:export-filename="..\VerticalFlappyCube(UnityProject)\Assets\0005Textures\vibOn.png"
       inkscape:export-xdpi="96"
       inkscape:export-ydpi="96"><path
         style="fill:none;stroke:#ffffff;stroke-width:2.64583;stroke-linecap:round;stroke-linejoin:round;stroke-opacity:1"
         d="m -168.18063,251.9365 c 0,6.24324 8.75677,15 15,15 h 110.00001 c 5.59602,0 15,-9.40398 15,-15 V 16.936501 c 0,-6.603364 -8.39664,-15.0000001 -15,-15.0000001 h -110.00001 c -7.07106,0 -15,7.928932 -15,15.0000001 z"
         id="path1747"
         sodipodi:nodetypes="sssssssss" /><path
         style="fill:none;stroke:#ffffff;stroke-width:2.46882;stroke-linecap:round;stroke-linejoin:round;stroke-opacity:1"
         d="m -163.49747,240.02681 c 0,5.82555 8.17092,13.99646 13.99647,13.99646 h 102.64076 c 5.22164,0 13.99646,-8.77482 13.99646,-13.99646 V 20.748835 c 0,-6.161584 -7.83488,-13.9964651 -13.99646,-13.9964651 H -149.501 c -6.598,0 -13.99647,7.3984671 -13.99647,13.9964651 z"
         id="path2573"
         sodipodi:nodetypes="sssssssss" /><circle
         style="fill:#ffffff;fill-opacity:1;stroke:none;stroke-width:1.551;stroke-linecap:round;stroke-linejoin:round;stroke-opacity:1"
         id="path3359"
         cx="-98.180626"
         cy="17.206913"
         r="2.4581304" /><path
         style="fill:none;fill-opacity:1;stroke:#ffffff;stroke-width:2.64583;stroke-linecap:round;stroke-linejoin:round;stroke-opacity:1"
         d="m 2.77117,12.808179 -25,30 25,30 -25,30.000001 25,30 -25,30 25,30 -25,30 25,30"
         id="path3361"
         sodipodi:nodetypes="ccccccccc" /><path
         style="fill:none;fill-opacity:1;stroke:#ffffff;stroke-width:2.64583;stroke-linecap:round;stroke-linejoin:round;stroke-opacity:1"
         d="m -198.28829,12.808179 25,30 -25,30 25,30.000001 -25,30 25,30 -25,30 25,30 -25,30"
         id="path4823"
         sodipodi:nodetypes="ccccccccc" /></g><g
       id="g4885"
       inkscape:export-filename="..\VerticalFlappyCube(UnityProject)\Assets\0005Textures\vibOff.png"
       inkscape:export-xdpi="96"
       inkscape:export-ydpi="96"><path
         style="fill:none;stroke:#ffffff;stroke-width:2.64583;stroke-linecap:round;stroke-linejoin:round;stroke-opacity:1"
         d="m 232.06086,261.47983 c 0,6.24324 8.75676,15 15,15 h 110 c 5.59602,0 15,-9.40398 15,-15 V 26.479831 c 0,-6.603364 -8.39664,-15 -15,-15 h -110 c -7.07107,0 -15,7.928932 -15,15 z"
         id="path4825"
         sodipodi:nodetypes="sssssssss" /><path
         style="fill:none;stroke:#ffffff;stroke-width:2.46882;stroke-linecap:round;stroke-linejoin:round;stroke-opacity:1"
         d="m 236.74402,249.57014 c 0,5.82555 8.17091,13.99646 13.99646,13.99646 h 102.64076 c 5.22164,0 13.99646,-8.77482 13.99646,-13.99646 V 30.292165 c 0,-6.161584 -7.83488,-13.996465 -13.99646,-13.996465 H 250.74048 c -6.59799,0 -13.99646,7.398467 -13.99646,13.996465 z"
         id="path4827"
         sodipodi:nodetypes="sssssssss" /><circle
         style="fill:#ffffff;fill-opacity:1;stroke:none;stroke-width:1.551;stroke-linecap:round;stroke-linejoin:round;stroke-opacity:1"
         id="circle4829"
         cx="302.06085"
         cy="26.750242"
         r="2.4581304" /></g></g></svg>
