<?xml version="1.0" encoding="UTF-8" standalone="no"?>
<!-- Created with Inkscape (http://www.inkscape.org/) -->

<svg
   width="210mm"
   height="297mm"
   viewBox="0 0 210 297"
   version="1.1"
   id="svg5"
   inkscape:version="1.2.1 (9c6d41e410, 2022-07-14)"
   sodipodi:docname="vibrationButton.svg"
   xml:space="preserve"
   xmlns:inkscape="http://www.inkscape.org/namespaces/inkscape"
   xmlns:sodipodi="http://sodipodi.sourceforge.net/DTD/sodipodi-0.dtd"
   xmlns="http://www.w3.org/2000/svg"
   xmlns:svg="http://www.w3.org/2000/svg"><sodipodi:namedview
     id="namedview7"
     pagecolor="#ffffff"
     bordercolor="#000000"
     borderopacity="0.25"
     inkscape:showpageshadow="2"
     inkscape:pageopacity="0.0"
     inkscape:pagecheckerboard="0"
     inkscape:deskcolor="#d1d1d1"
     inkscape:document-units="mm"
     showgrid="false"
     inkscape:zoom="0.457453"
     inkscape:cx="792.43113"
     inkscape:cy="524.64406"
     inkscape:window-width="2560"
     inkscape:window-height="1387"
     inkscape:window-x="-8"
     inkscape:window-y="22"
     inkscape:window-maximized="1"
     inkscape:current-layer="layer1" /><defs
     id="defs2" /><g
     inkscape:label="Warstwa 1"
     inkscape:groupmode="layer"
     id="layer1"><path
       style="fill:none;stroke:#ffffff;stroke-width:2.64583;stroke-linecap:round;stroke-linejoin:round;stroke-opacity:1"
       d="m -213.29455,229.95792 c 0,6.24324 8.75677,15 15,15 h 110.000006 c 5.59602,0 15,-9.40398 15,-15 V -5.042077 c 0,-6.603364 -8.39664,-15 -15,-15 H -198.29455 c -7.07106,0 -15,7.928932 -15,15 z"
       id="path1747"
       sodipodi:nodetypes="sssssssss" /><path
       style="fill:none;stroke:#ffffff;stroke-width:2.46882;stroke-linecap:round;stroke-linejoin:round;stroke-opacity:1"
       d="m -208.61139,218.04823 c 0,5.82555 8.17092,13.99646 13.99647,13.99646 h 102.640756 c 5.22164,0 13.99646,-8.77482 13.99646,-13.99646 V -1.229743 c 0,-6.161584 -7.83488,-13.996465 -13.99646,-13.996465 H -194.61492 c -6.598,0 -13.99647,7.398467 -13.99647,13.996465 z"
       id="path2573"
       sodipodi:nodetypes="sssssssss" /><circle
       style="fill:#ffffff;fill-opacity:1;stroke:none;stroke-width:1.551;stroke-linecap:round;stroke-linejoin:round;stroke-opacity:1"
       id="path3359"
       cx="-143.29456"
       cy="-4.7716651"
       r="2.4581304" /><path
       style="fill:none;fill-opacity:1;stroke:#ffffff;stroke-width:2.64583;stroke-linecap:round;stroke-linejoin:round;stroke-opacity:1"
       d="m -243.40221,-9.170399 25,30 -25,30 25,30.000001 -25,29.999998 25,30 -25,30 25,30 -25,30"
       id="path4823"
       sodipodi:nodetypes="ccccccccc" /><g
       id="g4141"
       transform="translate(27.184034,269.52677)"
       inkscape:export-filename="..\VerticalFlappyCube(UnityProject)\Assets\0005Textures\vibOff.png"
       inkscape:export-xdpi="35.148109"
       inkscape:export-ydpi="35.148109"><g
         id="g4040"
         transform="matrix(0.67596175,0,0,0.64117232,73.840594,2.7633311)"><path
           style="fill:none;stroke:#ffffff;stroke-width:7.9375;stroke-linecap:round;stroke-linejoin:round;stroke-dasharray:none;stroke-opacity:1"
           d="m 232.06086,261.47983 c 0,6.24324 8.75676,15 15,15 h 110 c 5.59602,0 15,-9.40398 15,-15 V 26.479831 c 0,-6.603364 -8.39664,-15 -15,-15 h -110 c -7.07107,0 -15,7.928932 -15,15 z"
           id="path4825"
           sodipodi:nodetypes="sssssssss" /><path
           style="fill:none;stroke:#ffffff;stroke-width:7.21599;stroke-linecap:round;stroke-linejoin:round;stroke-dasharray:none;stroke-opacity:1"
           d="m 243.67928,241.01877 c 0,5.38656 7.30333,12.94172 12.51033,12.94172 h 91.7425 c 4.66721,0 12.51033,-8.11357 12.51033,-12.94172 V 38.265141 c 0,-5.69726 -7.00298,-12.94172 -12.51033,-12.94172 h -91.7425 c -5.89743,0 -12.51033,6.840933 -12.51033,12.94172 z"
           id="path4827"
           sodipodi:nodetypes="sssssssss" /><circle
           style="fill:#ffffff;fill-opacity:1;stroke:none;stroke-width:16.1454;stroke-linecap:round;stroke-linejoin:round;stroke-dasharray:none;stroke-opacity:1"
           id="circle4829"
           cx="304.60272"
           cy="39.124638"
           r="5" /></g><rect
         style="fill:#ffffff;fill-opacity:0;stroke:none;stroke-width:5.14464;stroke-linecap:round;stroke-linejoin:round;stroke-dasharray:none;stroke-dashoffset:31.4961"
         id="rect4127"
         width="185"
         height="185"
         x="185.52219"
         y="2.5792131" /></g><g
       id="g4204"
       inkscape:export-filename="..\VerticalFlappyCube(UnityProject)\Assets\0005Textures\vibOn.png"
       inkscape:export-xdpi="35.148109"
       inkscape:export-ydpi="35.148109"><path
         style="fill:none;fill-opacity:1;stroke:#ffffff;stroke-width:5.41032;stroke-linecap:round;stroke-linejoin:round;stroke-dasharray:none;stroke-opacity:1"
         d="m 173.54483,-182.27557 -19.58976,22.44871 19.58976,22.44871 -19.58976,22.44871 19.58976,22.448717 -19.58976,22.448716 19.58976,22.448695 -19.58976,22.448714 19.58976,22.4487148"
         id="path3361"
         sodipodi:nodetypes="ccccccccc" /><g
         id="g4048"
         transform="matrix(0.67596175,0,0,0.64117232,-111.68159,-184.79661)"><path
           style="fill:none;stroke:#ffffff;stroke-width:7.9375;stroke-linecap:round;stroke-linejoin:round;stroke-dasharray:none;stroke-opacity:1"
           d="m 232.06086,261.47983 c 0,6.24324 8.75676,15 15,15 h 110 c 5.59602,0 15,-9.40398 15,-15 V 26.479831 c 0,-6.603364 -8.39664,-15 -15,-15 h -110 c -7.07107,0 -15,7.928932 -15,15 z"
           id="path4042"
           sodipodi:nodetypes="sssssssss" /><path
           style="fill:none;stroke:#ffffff;stroke-width:7.21599;stroke-linecap:round;stroke-linejoin:round;stroke-dasharray:none;stroke-opacity:1"
           d="m 243.67928,241.01877 c 0,5.38656 7.30333,12.94172 12.51033,12.94172 h 91.7425 c 4.66721,0 12.51033,-8.11357 12.51033,-12.94172 V 38.265141 c 0,-5.69726 -7.00298,-12.94172 -12.51033,-12.94172 h -91.7425 c -5.89743,0 -12.51033,6.840933 -12.51033,12.94172 z"
           id="path4044"
           sodipodi:nodetypes="sssssssss" /><circle
           style="fill:#ffffff;fill-opacity:1;stroke:none;stroke-width:16.1454;stroke-linecap:round;stroke-linejoin:round;stroke-dasharray:none;stroke-opacity:1"
           id="circle4046"
           cx="304.60272"
           cy="39.124638"
           r="5" /></g><path
         style="fill:none;fill-opacity:1;stroke:#ffffff;stroke-width:5.41032;stroke-linecap:round;stroke-linejoin:round;stroke-dasharray:none;stroke-opacity:1"
         d="m 11.45516,-182.27557 19.589767,22.44878 -19.589767,22.44867 19.589767,22.44867 -19.589767,22.448668 19.589767,22.448778 -19.589767,22.44867 19.589767,22.448668 -19.589767,22.4487796"
         id="path4073"
         sodipodi:nodetypes="ccccccccc" /><rect
         style="opacity:0;fill:#ffffff;fill-opacity:0;stroke:none;stroke-width:7.76412;stroke-linecap:round;stroke-linejoin:round;stroke-dasharray:none;stroke-dashoffset:31.4961"
         id="rect4195"
         width="185"
         height="185"
         x="0"
         y="-184.98073" /></g></g></svg>
